<svg xmlns="http://www.w3.org/2000/svg">
    <defs>
        <path id="stumbleupon-path-1" d="M0,0.0749333333 L31.9250667,0.0749333333 L31.9250667,31.984 L0,31.984" />
    </defs>
    <symbol viewBox="0 0 24 24" id="icon-add">
        <path d="M19 13h-6v6h-2v-6H5v-2h6V5h2v6h6v2z" />
    </symbol>
    <symbol viewBox="0 0 20 19" id="icon-admin-brush">
        <path d="M5 12C3.34 12 2 13.34 2 15C2 16.31 0.84 17 0 17C0.92 18.22 2.49 19 4 19C6.21 19 8 17.21 8 15C8 13.34 6.66 12 5 12ZM18.71 2.63L17.37 1.29C16.98 0.899999 16.35 0.899999 15.96 1.29L7 10.25L9.75 13L18.71 4.04C19.1 3.65 19.1 3.02 18.71 2.63Z" fill="#3E67F8" />
    </symbol>
    <symbol viewBox="0 0 12 8" id="icon-admin-close">
        <path d="M5.28997 0.70998L0.699971 5.29998C0.309971 5.68998 0.309971 6.31998 0.699971 6.70998C1.08997 7.09998 1.71997 7.09998 2.10997 6.70998L5.99997 2.82998L9.87997 6.70998C10.27 7.09998 10.9 7.09998 11.29 6.70998C11.68 6.31998 11.68 5.68998 11.29 5.29998L6.69997 0.70998C6.31997 0.31998 5.67997 0.31998 5.28997 0.70998Z" fill="#5E637A" />
    </symbol>
    <symbol viewBox="0 0 19 19" id="icon-admin-edit">
        <path d="M0 15.46V18.5C0 18.78 0.22 19 0.5 19H3.54C3.67 19 3.8 18.95 3.89 18.85L14.81 7.94L11.06 4.19L0.15 15.1C0.0500001 15.2 0 15.32 0 15.46ZM17.71 5.04C18.1 4.65 18.1 4.02 17.71 3.63L15.37 1.29C14.98 0.899999 14.35 0.899999 13.96 1.29L12.13 3.12L15.88 6.87L17.71 5.04Z" fill="#3E67F8" />
    </symbol>
    <symbol viewBox="0 0 18 18" id="icon-admin-link">
        <path d="M15 16H3C2.45 16 2 15.55 2 15V3C2 2.45 2.45 2 3 2H8C8.55 2 9 1.55 9 1C9 0.45 8.55 0 8 0H2C0.89 0 0 0.9 0 2V16C0 17.1 0.9 18 2 18H16C17.1 18 18 17.1 18 16V10C18 9.45 17.55 9 17 9C16.45 9 16 9.45 16 10V15C16 15.55 15.55 16 15 16ZM11 1C11 1.55 11.45 2 12 2H14.59L5.46 11.13C5.07 11.52 5.07 12.15 5.46 12.54C5.85 12.93 6.48 12.93 6.87 12.54L16 3.41V6C16 6.55 16.45 7 17 7C17.55 7 18 6.55 18 6V0H12C11.45 0 11 0.45 11 1Z" fill="#3E67F8" />
    </symbol>
    <symbol viewBox="0 0 20 20" id="icon-admin-tooltip">
        <path d="M10 0C4.48 0 0 4.48 0 10C0 15.52 4.48 20 10 20C15.52 20 20 15.52 20 10C20 4.48 15.52 0 10 0ZM10 15C9.45 15 9 14.55 9 14V10C9 9.45 9.45 9 10 9C10.55 9 11 9.45 11 10V14C11 14.55 10.55 15 10 15ZM11 7H9V5H11V7Z" fill="#5E637A" />
    </symbol>
    <symbol viewBox="0 0 36 36" id="icon-arrow-down">
        <path d="M16.5 6v18.26l-8.38-8.38-2.12 2.12 12 12 12-12-2.12-2.12-8.38 8.38v-18.26h-3z" />
    </symbol>
    <symbol viewBox="0 0 448 512" id="icon-chevron-up">
        <path d="M6.101 359.293L25.9 379.092c4.686 4.686 12.284 4.686 16.971 0L224 198.393l181.13 180.698c4.686 4.686 12.284 4.686 16.971 0l19.799-19.799c4.686-4.686 4.686-12.284 0-16.971L232.485 132.908c-4.686-4.686-12.284-4.686-16.971 0L6.101 342.322c-4.687 4.687-4.687 12.285 0 16.971z" class=""></path>
    </symbol>
    <symbol viewBox="0 0 448 512" id="icon-chevron-down">
        <path d="M441.9 167.3l-19.8-19.8c-4.7-4.7-12.3-4.7-17 0L224 328.2 42.9 147.5c-4.7-4.7-12.3-4.7-17 0L6.1 167.3c-4.7 4.7-4.7 12.3 0 17l209.4 209.4c4.7 4.7 12.3 4.7 17 0l209.4-209.4c4.7-4.7 4.7-12.3 0-17z" class=""></path>
    </symbol>
    <symbol viewBox="0 0 24 24" id="icon-chevron-left">
        <path d="M15.41 7.41L14 6l-6 6 6 6 1.41-1.41L10.83 12z" />
    </symbol>
    <symbol viewBox="0 0 24 24" id="icon-chevron-right">
        <path d="M10 6L8.59 7.41 13.17 12l-4.58 4.59L10 18l6-6z" />
    </symbol>
    <symbol viewBox="0 0 612 612" id="icon-close">
        <polygon points="612,36.004 576.521,0.603 306,270.608 35.478,0.603 0,36.004 270.522,306.011 0,575.997 35.478,611.397 306,341.411 576.521,611.397 612,575.997 341.459,306.011 "></polygon>
    </symbol>
    <symbol viewBox="0 0 28 28" id="icon-envelope">
        <path d="M0 23.5v-12.406q0.688 0.766 1.578 1.359 5.656 3.844 7.766 5.391 0.891 0.656 1.445 1.023t1.477 0.75 1.719 0.383h0.031q0.797 0 1.719-0.383t1.477-0.75 1.445-1.023q2.656-1.922 7.781-5.391 0.891-0.609 1.563-1.359v12.406q0 1.031-0.734 1.766t-1.766 0.734h-23q-1.031 0-1.766-0.734t-0.734-1.766zM0 6.844q0-1.219 0.648-2.031t1.852-0.812h23q1.016 0 1.758 0.734t0.742 1.766q0 1.234-0.766 2.359t-1.906 1.922q-5.875 4.078-7.313 5.078-0.156 0.109-0.664 0.477t-0.844 0.594-0.812 0.508-0.898 0.422-0.781 0.141h-0.031q-0.359 0-0.781-0.141t-0.898-0.422-0.812-0.508-0.844-0.594-0.664-0.477q-1.422-1-4.094-2.852t-3.203-2.227q-0.969-0.656-1.828-1.805t-0.859-2.133z" />
    </symbol>
    <symbol viewBox="0 0 32 32" id="icon-facebook">
        <path d="M2.428 0.41c-0.936 0-1.695 0.753-1.695 1.682v27.112c0 0.929 0.759 1.682 1.695 1.682h14.709v-11.802h-4.002v-4.599h4.002v-3.392c0-3.936 2.423-6.080 5.961-6.080 1.695 0 3.152 0.125 3.576 0.181v4.114l-2.454 0.001c-1.924 0-2.297 0.907-2.297 2.239v2.937h4.59l-0.598 4.599h-3.992v11.802h7.826c0.936 0 1.695-0.753 1.695-1.682v-27.112c0-0.929-0.759-1.682-1.695-1.682h-27.321z" />
    </symbol>
    <symbol viewBox="0 0 20 28" id="icon-google">
        <path d="M1.734 21.156q0-1.266 0.695-2.344t1.852-1.797q2.047-1.281 6.312-1.563-0.5-0.641-0.742-1.148t-0.242-1.148q0-0.625 0.328-1.328-0.719 0.063-1.062 0.063-2.312 0-3.898-1.508t-1.586-3.82q0-1.281 0.562-2.484t1.547-2.047q1.188-1.031 2.844-1.531t3.406-0.5h6.516l-2.141 1.375h-2.063q1.172 0.984 1.766 2.078t0.594 2.5q0 1.125-0.383 2.023t-0.93 1.453-1.086 1.016-0.922 0.961-0.383 1.031q0 0.562 0.5 1.102t1.203 1.062 1.414 1.148 1.211 1.625 0.5 2.219q0 1.422-0.766 2.703-1.109 1.906-3.273 2.805t-4.664 0.898q-2.063 0-3.852-0.648t-2.695-2.148q-0.562-0.922-0.562-2.047zM4.641 20.438q0 0.875 0.367 1.594t0.953 1.18 1.359 0.781 1.563 0.453 1.586 0.133q0.906 0 1.742-0.203t1.547-0.609 1.141-1.141 0.43-1.703q0-0.391-0.109-0.766t-0.227-0.656-0.422-0.648-0.461-0.547-0.602-0.539-0.57-0.453-0.648-0.469-0.57-0.406q-0.25-0.031-0.766-0.031-0.828 0-1.633 0.109t-1.672 0.391-1.516 0.719-1.070 1.164-0.422 1.648zM6.297 4.906q0 0.719 0.156 1.523t0.492 1.609 0.812 1.445 1.172 1.047 1.508 0.406q0.578 0 1.211-0.258t1.023-0.68q0.828-0.875 0.828-2.484 0-0.922-0.266-1.961t-0.75-2.016-1.313-1.617-1.828-0.641q-0.656 0-1.289 0.305t-1.039 0.82q-0.719 0.922-0.719 2.5z" />
    </symbol>
    <symbol viewBox="0 0 512 512" id="icon-instagram">
        <path d="M256 49.5c67.3 0 75.2.3 101.8 1.5 24.6 1.1 37.9 5.2 46.8 8.7 11.8 4.6 20.2 10 29 18.8s14.3 17.2 18.8 29c3.4 8.9 7.6 22.2 8.7 46.8 1.2 26.6 1.5 34.5 1.5 101.8s-.3 75.2-1.5 101.8c-1.1 24.6-5.2 37.9-8.7 46.8-4.6 11.8-10 20.2-18.8 29s-17.2 14.3-29 18.8c-8.9 3.4-22.2 7.6-46.8 8.7-26.6 1.2-34.5 1.5-101.8 1.5s-75.2-.3-101.8-1.5c-24.6-1.1-37.9-5.2-46.8-8.7-11.8-4.6-20.2-10-29-18.8s-14.3-17.2-18.8-29c-3.4-8.9-7.6-22.2-8.7-46.8-1.2-26.6-1.5-34.5-1.5-101.8s.3-75.2 1.5-101.8c1.1-24.6 5.2-37.9 8.7-46.8 4.6-11.8 10-20.2 18.8-29s17.2-14.3 29-18.8c8.9-3.4 22.2-7.6 46.8-8.7 26.6-1.3 34.5-1.5 101.8-1.5m0-45.4c-68.4 0-77 .3-103.9 1.5C125.3 6.8 107 11.1 91 17.3c-16.6 6.4-30.6 15.1-44.6 29.1-14 14-22.6 28.1-29.1 44.6-6.2 16-10.5 34.3-11.7 61.2C4.4 179 4.1 187.6 4.1 256s.3 77 1.5 103.9c1.2 26.8 5.5 45.1 11.7 61.2 6.4 16.6 15.1 30.6 29.1 44.6 14 14 28.1 22.6 44.6 29.1 16 6.2 34.3 10.5 61.2 11.7 26.9 1.2 35.4 1.5 103.9 1.5s77-.3 103.9-1.5c26.8-1.2 45.1-5.5 61.2-11.7 16.6-6.4 30.6-15.1 44.6-29.1 14-14 22.6-28.1 29.1-44.6 6.2-16 10.5-34.3 11.7-61.2 1.2-26.9 1.5-35.4 1.5-103.9s-.3-77-1.5-103.9c-1.2-26.8-5.5-45.1-11.7-61.2-6.4-16.6-15.1-30.6-29.1-44.6-14-14-28.1-22.6-44.6-29.1-16-6.2-34.3-10.5-61.2-11.7-27-1.1-35.6-1.4-104-1.4z"></path><path d="M256 126.6c-71.4 0-129.4 57.9-129.4 129.4s58 129.4 129.4 129.4 129.4-58 129.4-129.4-58-129.4-129.4-129.4zm0 213.4c-46.4 0-84-37.6-84-84s37.6-84 84-84 84 37.6 84 84-37.6 84-84 84z"></path><circle cx="390.5" cy="121.5" r="30.2"></circle>
    </symbol>
    <symbol viewBox="0 0 24 24" id="icon-keyboard-arrow-down">
        <path d="M7.41 7.84L12 12.42l4.59-4.58L18 9.25l-6 6-6-6z" />
    </symbol>
    <symbol viewBox="0 0 24 24" id="icon-keyboard-arrow-up">
        <path d="M7.41 15.41L12 10.83l4.59 4.58L18 14l-6-6-6 6z" />
    </symbol>
    <symbol viewBox="0 0 32 32" id="icon-linkedin">
        <path d="M27.2684444,27.2675556 L22.5226667,27.2675556 L22.5226667,19.8408889 C22.5226667,18.0702222 22.4924444,15.792 20.0568889,15.792 C17.5866667,15.792 17.2097778,17.7217778 17.2097778,19.7146667 L17.2097778,27.2675556 L12.4693333,27.2675556 L12.4693333,11.9964444 L17.0186667,11.9964444 L17.0186667,14.0844444 L17.0844444,14.0844444 C17.7173333,12.8835556 19.2657778,11.6177778 21.5742222,11.6177778 C26.3804444,11.6177778 27.2684444,14.7795556 27.2684444,18.8924444 L27.2684444,27.2675556 L27.2684444,27.2675556 Z M7.11822222,9.91022222 C5.59377778,9.91022222 4.36444444,8.67733333 4.36444444,7.15733333 C4.36444444,5.63822222 5.59377778,4.40533333 7.11822222,4.40533333 C8.63644444,4.40533333 9.86844444,5.63822222 9.86844444,7.15733333 C9.86844444,8.67733333 8.63644444,9.91022222 7.11822222,9.91022222 L7.11822222,9.91022222 Z M4.74133333,11.9964444 L9.49244444,11.9964444 L9.49244444,27.2675556 L4.74133333,27.2675556 L4.74133333,11.9964444 Z M29.632,0 L2.36,0 C1.05777778,0 0,1.03288889 0,2.30755556 L0,29.6906667 C0,30.9653333 1.05777778,32 2.36,32 L29.632,32 C30.9368889,32 31.9991111,30.9653333 31.9991111,29.6906667 L31.9991111,2.30755556 C31.9991111,1.03288889 30.9368889,0 29.632,0 L29.632,0 Z" id="linkedin-Fill-4" />
    </symbol>
    <symbol viewBox="0 0 24 24" id="icon-lock">
        <path d="M18 8h-1V6c0-2.76-2.24-5-5-5S7 3.24 7 6v2H6c-1.1 0-2 .9-2 2v10c0 1.1.9 2 2 2h12c1.1 0 2-.9 2-2V10c0-1.1-.9-2-2-2zm-6 9c-1.1 0-2-.9-2-2s.9-2 2-2 2 .9 2 2-.9 2-2 2zm3.1-9H8.9V6c0-1.71 1.39-3.1 3.1-3.1 1.71 0 3.1 1.39 3.1 3.1v2z" />
    </symbol>
        <symbol viewBox="0 0 780 500" id="icon-logo-visa">
        <rect width="780" height="500" fill="#0E4595"></rect>
        <path d="m293.2 348.73l33.361-195.76h53.36l-33.385 195.76h-53.336zm246.11-191.54c-10.57-3.966-27.137-8.222-47.822-8.222-52.725 0-89.865 26.55-90.18 64.603-0.299 28.13 26.514 43.822 46.752 53.186 20.771 9.595 27.752 15.714 27.654 24.283-0.131 13.121-16.586 19.116-31.922 19.116-21.357 0-32.703-2.967-50.227-10.276l-6.876-3.11-7.489 43.823c12.463 5.464 35.51 10.198 59.438 10.443 56.09 0 92.5-26.246 92.916-66.882 0.199-22.269-14.016-39.216-44.801-53.188-18.65-9.055-30.072-15.099-29.951-24.268 0-8.137 9.668-16.839 30.557-16.839 17.449-0.27 30.09 3.535 39.938 7.5l4.781 2.26 7.232-42.429m137.31-4.223h-41.232c-12.773 0-22.332 3.487-27.941 16.234l-79.244 179.4h56.031s9.16-24.123 11.232-29.418c6.125 0 60.555 0.084 68.338 0.084 1.596 6.853 6.49 29.334 6.49 29.334h49.514l-43.188-195.64zm-65.418 126.41c4.412-11.279 21.26-54.723 21.26-54.723-0.316 0.522 4.379-11.334 7.074-18.684l3.605 16.879s10.219 46.729 12.354 56.528h-44.293zm-363.3-126.41l-52.24 133.5-5.567-27.13c-9.725-31.273-40.025-65.155-73.898-82.118l47.766 171.2 56.456-0.064 84.004-195.39h-56.521" fill="#fff"></path><path d="m146.92 152.96h-86.041l-0.681 4.073c66.938 16.204 111.23 55.363 129.62 102.41l-18.71-89.96c-3.23-12.395-12.597-16.094-24.186-16.527" fill="#F2AE14"></path>
    </symbol>
    <symbol viewBox="163.5 163.50000000000003 285 285" id="icon-logo-amazonpay">
        <g clip-rule="evenodd" fill-rule="evenodd"><path d="m340.3 330.2c-16.5 12.2-40.5 18.7-61.2 18.7-29 0-55-10.7-74.8-28.5-1.5-1.4-.2-3.3 1.7-2.2 21.3 12.4 47.6 19.8 74.8 19.8 18.3 0 38.5-3.8 57.1-11.7 2.8-1.1 5.1 1.9 2.4 3.9z" fill="#f90"/><path d="m347.2 322.3c-2.1-2.7-14-1.3-19.3-.6-1.6.2-1.9-1.2-.4-2.2 9.5-6.7 25-4.7 26.8-2.5s-.5 17.8-9.4 25.2c-1.4 1.1-2.7.5-2.1-1 2-5 6.5-16.1 4.4-18.9z" fill="#f90"/><path d="m328.2 272.5v-6.5c0-1 .7-1.6 1.6-1.6h29c.9 0 1.7.7 1.7 1.6v5.5c0 .9-.8 2.1-2.2 4.1l-15 21.4c5.6-.1 11.5.7 16.5 3.5 1.1.6 1.4 1.6 1.5 2.5v6.9c0 1-1 2.1-2.1 1.5-8.9-4.7-20.8-5.2-30.6.1-1 .5-2.1-.5-2.1-1.5v-6.6c0-1 0-2.8 1.1-4.4l17.4-24.9h-15.1c-.9 0-1.7-.7-1.7-1.6zm-105.7 40.3h-8.8c-.8-.1-1.5-.7-1.6-1.5v-45.2c0-.9.8-1.6 1.7-1.6h8.2c.9 0 1.5.7 1.6 1.5v5.9h.2c2.1-5.7 6.2-8.4 11.6-8.4 5.5 0 9 2.7 11.4 8.4 2.1-5.7 7-8.4 12.2-8.4 3.7 0 7.7 1.5 10.2 5 2.8 3.8 2.2 9.3 2.2 14.2v28.6c0 .9-.8 1.6-1.7 1.6h-8.7c-.9-.1-1.6-.8-1.6-1.6v-24c0-1.9.2-6.7-.2-8.5-.7-3-2.6-3.9-5.2-3.9-2.1 0-4.4 1.4-5.3 3.7s-.8 6.1-.8 8.7v24c0 .9-.8 1.6-1.7 1.6h-8.8c-.9-.1-1.6-.8-1.6-1.6v-24c0-5 .8-12.5-5.4-12.5-6.3 0-6.1 7.2-6.1 12.5v24c-.1.8-.8 1.5-1.8 1.5zm163-49.3c13.1 0 20.2 11.2 20.2 25.5 0 13.8-7.8 24.8-20.2 24.8-12.8 0-19.8-11.2-19.8-25.2-.1-14.1 7-25.1 19.8-25.1zm0 9.3c-6.5 0-6.9 8.9-6.9 14.4s-.1 17.3 6.8 17.3c6.8 0 7.2-9.5 7.2-15.3 0-3.8-.2-8.4-1.3-12-1-3.2-3-4.4-5.8-4.4zm37.1 40h-8.8c-.9-.1-1.6-.8-1.6-1.6v-45.3c.1-.8.8-1.5 1.7-1.5h8.2c.8 0 1.4.6 1.6 1.3v6.9h.2c2.5-6.2 5.9-9.1 12-9.1 3.9 0 7.8 1.4 10.3 5.3 2.3 3.6 2.3 9.7 2.3 14.1v28.5c-.1.8-.8 1.4-1.7 1.4h-8.8c-.8-.1-1.5-.7-1.6-1.4v-24.6c0-5 .6-12.2-5.5-12.2-2.1 0-4.1 1.4-5.1 3.6-1.2 2.8-1.4 5.5-1.4 8.6v24.4c-.1.9-.9 1.6-1.8 1.6zm-117.5-21.6c0 3.4.1 6.3-1.6 9.4-1.4 2.5-3.6 4-6.1 4-3.4 0-5.4-2.6-5.4-6.4 0-7.5 6.7-8.9 13.1-8.9zm8.9 21.5c-.6.5-1.4.6-2.1.2-2.9-2.4-3.5-3.6-5.1-5.9-4.8 4.9-8.3 6.4-14.5 6.4-7.4 0-13.2-4.6-13.2-13.7 0-7.2 3.9-12 9.4-14.4 4.8-2.1 11.5-2.5 16.6-3.1v-1.1c0-2.1.2-4.6-1.1-6.4-1.1-1.6-3.1-2.3-4.9-2.3-3.4 0-6.4 1.7-7.1 5.3-.2.8-.7 1.6-1.5 1.6l-8.5-.9c-.7-.2-1.5-.7-1.3-1.8 2-10.4 11.3-13.5 19.7-13.5 4.3 0 9.9 1.1 13.3 4.4 4.3 4 3.9 9.4 3.9 15.2v13.7c0 4.1 1.7 5.9 3.3 8.2.6.8.7 1.8 0 2.3-1.9 1.5-5.1 4.3-6.9 5.8zm-124.4-21.5c0 3.4.1 6.3-1.6 9.4-1.4 2.5-3.6 4-6.1 4-3.4 0-5.4-2.6-5.4-6.4 0-7.5 6.7-8.9 13.1-8.9zm8.8 21.5c-.6.5-1.4.6-2.1.2-2.9-2.4-3.5-3.6-5.1-5.9-4.8 4.9-8.3 6.4-14.5 6.4-7.4 0-13.2-4.6-13.2-13.7 0-7.2 3.9-12 9.4-14.4 4.8-2.1 11.5-2.5 16.6-3.1v-1.1c0-2.1.2-4.6-1.1-6.4-1.1-1.6-3.1-2.3-4.9-2.3-3.4 0-6.4 1.7-7.1 5.3-.2.8-.7 1.6-1.5 1.6l-8.5-.9c-.7-.2-1.5-.7-1.3-1.8 2-10.4 11.3-13.5 19.7-13.5 4.3 0 9.9 1.1 13.3 4.4 4.3 4 3.9 9.4 3.9 15.2v13.7c0 4.1 1.7 5.9 3.3 8.2.6.8.7 1.8 0 2.3-1.9 1.5-5.1 4.3-6.9 5.8z"/></g>
    </symbol>
    <symbol viewBox="0 0 780 500" id="icon-logo-american-express">
        <rect width="780" height="500" fill="#2478bc"></rect>
        <path d="m0.253 235.69h37.441l8.442-19.51h18.9l8.42 19.51h73.668v-14.915l6.576 14.98h38.243l6.576-15.202v15.138h183.08l-0.085-32.026h3.542c2.479 0.083 3.204 0.302 3.204 4.226v27.8h94.689v-7.455c7.639 3.92 19.518 7.455 35.148 7.455h39.836l8.525-19.51h18.9l8.337 19.51h76.765v-18.532l11.626 18.532h61.515v-122.51h-60.88v14.468l-8.522-14.468h-62.471v14.468l-7.828-14.468h-84.38c-14.123 0-26.539 1.889-36.569 7.153v-7.153h-58.229v7.153c-6.383-5.426-15.079-7.153-24.75-7.153h-212.74l-14.274 31.641-14.659-31.641h-67.005v14.468l-7.362-14.468h-57.145l-26.539 58.246v64.261h3e-3zm236.34-17.67h-22.464l-0.083-68.794-31.775 68.793h-19.24l-31.858-68.854v68.854h-44.57l-8.42-19.592h-45.627l-8.505 19.592h-23.801l39.241-87.837h32.559l37.269 83.164v-83.164h35.766l28.678 59.587 26.344-59.587h36.485l1e-3 87.838zm-165.9-37.823l-14.998-35.017-14.915 35.017h29.913zm255.3 37.821h-73.203v-87.837h73.203v18.291h-51.289v15.833h50.06v18.005h-50.061v17.542h51.289l1e-3 18.166zm103.16-64.18c0 14.004-9.755 21.24-15.439 23.412 4.794 1.748 8.891 4.838 10.84 7.397 3.094 4.369 3.628 8.271 3.628 16.116v17.255h-22.104l-0.083-11.077c0-5.285 0.528-12.886-3.458-17.112-3.202-3.09-8.083-3.76-15.973-3.76h-23.523v31.95h-21.914v-87.838h50.401c11.199 0 19.451 0.283 26.535 4.207 6.933 3.924 11.09 9.652 11.09 19.45zm-27.699 13.042c-3.013 1.752-6.573 1.81-10.841 1.81h-26.62v-19.51h26.982c3.818 0 7.804 0.164 10.393 1.584 2.842 1.28 4.601 4.003 4.601 7.765 0 3.84-1.674 6.929-4.515 8.351zm62.844 51.138h-22.358v-87.837h22.358v87.837zm259.56 0h-31.053l-41.535-65.927v65.927h-44.628l-8.527-19.592h-45.521l-8.271 19.592h-25.648c-10.649 0-24.138-2.257-31.773-9.715-7.701-7.458-11.708-17.56-11.708-33.533 0-13.027 2.395-24.936 11.812-34.347 7.085-7.01 18.18-10.242 33.28-10.242h21.215v18.821h-20.771c-7.997 0-12.514 1.14-16.862 5.203-3.735 3.699-6.298 10.69-6.298 19.897 0 9.41 1.951 16.196 6.023 20.628 3.373 3.476 9.506 4.53 15.272 4.53h9.842l30.884-69.076h32.835l37.102 83.081v-83.08h33.366l38.519 61.174v-61.174h22.445v87.833zm-133.2-37.82l-15.165-35.017-15.081 35.017h30.246zm189.04 178.08c-5.322 7.457-15.694 11.238-29.736 11.238h-42.319v-18.84h42.147c4.181 0 7.106-0.527 8.868-2.175 1.665-1.474 2.605-3.554 2.591-5.729 0-2.561-1.064-4.593-2.677-5.811-1.59-1.342-3.904-1.95-7.722-1.95-20.574-0.67-46.244 0.608-46.244-27.194 0-12.742 8.443-26.156 31.439-26.156h43.649v-17.479h-40.557c-12.237 0-21.129 2.81-27.425 7.174v-7.175h-59.985c-9.595 0-20.854 2.279-26.179 7.175v-7.175h-107.12v7.175c-8.524-5.892-22.908-7.175-29.549-7.175h-70.656v7.175c-6.745-6.258-21.742-7.175-30.886-7.175h-79.077l-18.094 18.764-16.949-18.764h-118.13v122.59h115.9l18.646-19.062 17.565 19.062 71.442 0.061v-28.838h7.021c9.479 0.14 20.66-0.228 30.523-4.312v33.085h58.928v-31.952h2.842c3.628 0 3.985 0.144 3.985 3.615v28.333h179.01c11.364 0 23.244-2.786 29.824-7.845v7.845h56.78c11.815 0 23.354-1.587 32.134-5.649l2e-3 -22.84zm-354.94-47.155c0 24.406-19.005 29.445-38.159 29.445h-27.343v29.469h-42.591l-26.984-29.086-28.042 29.086h-86.802v-87.859h88.135l26.961 28.799 27.875-28.799h70.021c17.389 0 36.929 4.613 36.929 28.945zm-174.22 40.434h-53.878v-17.48h48.11v-17.926h-48.11v-15.974h54.939l23.969 25.604-25.03 25.776zm86.81 10.06l-33.644-35.789 33.644-34.65v70.439zm49.757-39.066h-28.318v-22.374h28.572c7.912 0 13.404 3.09 13.404 10.772 0 7.599-5.238 11.602-13.658 11.602zm148.36-40.373h73.138v18.17h-51.315v15.973h50.062v17.926h-50.062v17.48l51.314 0.08v18.23h-73.139l2e-3 -87.859zm-28.119 47.029c4.878 1.725 8.865 4.816 10.734 7.375 3.095 4.291 3.542 8.294 3.631 16.037v17.418h-22.002v-10.992c0-5.286 0.531-13.112-3.542-17.198-3.201-3.147-8.083-3.899-16.076-3.899h-23.42v32.09h-22.02v-87.859h50.594c11.093 0 19.173 0.47 26.366 4.146 6.915 4.004 11.266 9.487 11.266 19.511-1e-3 14.022-9.764 21.178-15.531 23.371zm-12.385-11.107c-2.932 1.667-6.556 1.811-10.818 1.811h-26.622v-19.732h26.982c3.902 0 7.807 0.08 10.458 1.587 2.84 1.423 4.538 4.146 4.538 7.903 0 3.758-1.699 6.786-4.538 8.431zm197.82 5.597c4.27 4.229 6.554 9.571 6.554 18.613 0 18.9-12.322 27.723-34.425 27.723h-42.68v-18.84h42.51c4.157 0 7.104-0.525 8.95-2.175 1.508-1.358 2.589-3.333 2.589-5.729 0-2.561-1.17-4.592-2.675-5.811-1.675-1.34-3.986-1.949-7.803-1.949-20.493-0.67-46.157 0.609-46.157-27.192 0-12.744 8.355-26.158 31.33-26.158h43.932v18.7h-40.198c-3.984 0-6.575 0.145-8.779 1.587-2.4 1.422-3.29 3.534-3.29 6.319 0 3.314 2.037 5.57 4.795 6.546 2.311 0.77 4.795 0.995 8.526 0.995l11.797 0.306c11.895 0.276 20.061 2.248 25.024 7.065zm86.955-23.52h-39.938c-3.986 0-6.638 0.144-8.867 1.587-2.312 1.423-3.202 3.534-3.202 6.322 0 3.314 1.951 5.568 4.791 6.544 2.312 0.771 4.795 0.996 8.444 0.996l11.878 0.304c11.983 0.284 19.982 2.258 24.86 7.072 0.891 0.67 1.422 1.422 2.033 2.175v-25h1e-3z" fill="#fff"></path>
    </symbol>
    <symbol viewBox="0 0 780 500" id="icon-logo-discover">
        <g fill-rule="evenodd"><path d="M54.992 0C0 0 0 0 0 0v0C0 0 0 0 0 501h670.016C755.373 501 780 476.37 780 445.996V0C0 0 755.381 0 725.008 0H54.992z" fill="#ffffff"></path><path d="M327.152 161.893c8.837 0 16.248 1.784 25.268 6.09v22.751c-8.544-7.863-15.955-11.154-25.756-11.154-19.264 0-34.414 15.015-34.414 34.05 0 20.075 14.681 34.196 35.37 34.196 9.312 0 16.586-3.12 24.8-10.857v22.763c-9.341 4.14-16.911 5.776-25.756 5.776-31.278 0-55.582-22.596-55.582-51.737 0-28.826 24.951-51.878 56.07-51.878zm-97.113.627c11.546 0 22.11 3.72 30.943 10.994l-10.748 13.248c-5.35-5.646-10.41-8.028-16.564-8.028-8.853 0-15.3 4.745-15.3 10.989 0 5.354 3.619 8.188 15.944 12.482 23.365 8.044 30.29 15.176 30.29 30.926 0 19.193-14.976 32.553-36.32 32.553-15.63 0-26.994-5.795-36.458-18.872l13.268-12.03c4.73 8.61 12.622 13.222 22.42 13.222 9.163 0 15.947-5.952 15.947-13.984 0-4.164-2.055-7.734-6.158-10.258-2.066-1.195-6.158-2.977-14.2-5.647-19.291-6.538-25.91-13.527-25.91-27.185 0-16.225 14.214-28.41 32.846-28.41zm234.723 1.728h22.437l28.084 66.592 28.446-66.592h22.267l-45.494 101.686h-11.053l-44.687-101.686zm-397.348.152h30.15c33.312 0 56.534 20.382 56.534 49.641 0 14.59-7.104 28.696-19.118 38.057-10.108 7.901-21.626 11.445-37.574 11.445H67.414V164.4zm96.135 0h20.54v99.143h-20.54V164.4zm411.734 0h58.252v16.8H595.81v22.005h36.336v16.791h-36.336v26.762h37.726v16.785h-58.252V164.4zm71.858 0h30.455c23.69 0 37.265 10.71 37.265 29.272 0 15.18-8.514 25.14-23.986 28.105l33.148 41.766h-25.26l-28.429-39.828h-2.678v39.828h-20.515V164.4zm20.515 15.616v30.025h6.002c13.117 0 20.069-5.362 20.069-15.328 0-9.648-6.954-14.697-19.745-14.697h-6.326zM87.94 181.199v65.559h5.512c13.273 0 21.656-2.394 28.11-7.88 7.103-5.955 11.376-15.465 11.376-24.98 0-9.499-4.273-18.725-11.376-24.681-6.785-5.78-14.837-8.018-28.11-8.018H87.94z" fill="#000000"></path><path d="M415.13 161.213c30.941 0 56.022 23.58 56.022 52.709v.033c0 29.13-25.081 52.742-56.021 52.742s-56.022-23.613-56.022-52.742v-.033c0-29.13 25.082-52.71 56.022-52.71zM779.983 288.36c-26.05 18.33-221.077 149.34-558.754 212.623H724.99c30.365 0 54.992-0 54.992-0V0z" fill="#F47216"></path></g>
    </symbol>
    <symbol viewBox="0 0 435.97 173.13" id="icon-logo-googlepay">
        <path d="M206.2,84.58v50.75H190.1V10h42.7a38.61,38.61,0,0,1,27.65,10.85A34.88,34.88,0,0,1,272,47.3a34.72,34.72,0,0,1-11.55,26.6q-11.2,10.68-27.65,10.67H206.2Zm0-59.15V69.18h27a21.28,21.28,0,0,0,15.93-6.48,21.36,21.36,0,0,0,0-30.63,21,21,0,0,0-15.93-6.65h-27Z" fill="#5f6368" />
        <path d="M309.1,46.78q17.85,0,28.18,9.54T347.6,82.48v52.85H332.2v-11.9h-.7q-10,14.7-26.6,14.7-14.17,0-23.71-8.4a26.82,26.82,0,0,1-9.54-21q0-13.31,10.06-21.17t26.86-7.88q14.34,0,23.62,5.25V81.25A18.33,18.33,0,0,0,325.54,67,22.8,22.8,0,0,0,310,61.13q-13.49,0-21.35,11.38l-14.18-8.93Q286.17,46.78,309.1,46.78Zm-20.83,62.3a12.86,12.86,0,0,0,5.34,10.5,19.64,19.64,0,0,0,12.51,4.2,25.67,25.67,0,0,0,18.11-7.52q8-7.53,8-17.67-7.53-6-21-6-9.81,0-16.36,4.73C290.46,100.52,288.27,104.41,288.27,109.08Z" fill="#5f6368" />
        <path d="M436,49.58,382.24,173.13H365.62l19.95-43.23L350.22,49.58h17.5l25.55,61.6h.35l24.85-61.6Z" fill="#5f6368" />
        <path d="M141.14,73.64A85.79,85.79,0,0,0,139.9,59H72V86.73h38.89a33.33,33.33,0,0,1-14.38,21.88v18h23.21C133.31,114.08,141.14,95.55,141.14,73.64Z" fill="#4285f4" />
        <path d="M72,144c19.43,0,35.79-6.38,47.72-17.38l-23.21-18C90.05,113,81.73,115.5,72,115.5c-18.78,0-34.72-12.66-40.42-29.72H7.67v18.55A72,72,0,0,0,72,144Z" fill="#34a853" />
        <path d="M31.58,85.78a43.14,43.14,0,0,1,0-27.56V39.67H7.67a72,72,0,0,0,0,64.66Z" fill="#fbbc04" />
        <path d="M72,28.5A39.09,39.09,0,0,1,99.62,39.3h0l20.55-20.55A69.18,69.18,0,0,0,72,0,72,72,0,0,0,7.67,39.67L31.58,58.22C37.28,41.16,53.22,28.5,72,28.5Z" fill="#ea4335" />
    </symbol>
    <symbol viewBox="0 0 192 185" id="icon-logo-estern-union">
        <g fill-rule="evenodd" clip-rule="evenodd">
            <path fill="#f7de4b" d="M0 0h256.756v192.756H0V0z" />
            <path fill="#000000" d="M175.152 114.543h-1.422V78.647h1.422v35.896zM157.971 114.434h-1.422V78.537h1.422v35.897zM25.459 94.588l1.428-10.352 1.45 10.352h6.975l3.384-15.985h-5.455l-1.497 10.109-1.496-10.109h-6.653l-1.496 9.842-1.474-9.842H14.94l3.43 15.985h7.089zM41.432 94.588h13.884v-4.157h-6.993v-1.89h6.596v-4.113h-6.596v-1.712h6.764v-4.113H41.432v15.985zM58.304 89.453c-.024.2-.024.4-.024.578 0 3.046 2.764 4.829 7.971 4.829 5.132 0 7.926-1.834 7.926-5.214 0-2.912-1.637-3.775-5.725-5.152-2.183-.735-3.449-.696-3.449-1.808 0-.6.383-1.036 1.296-1.036 1.079 0 1.604.713 1.555 1.762h5.897v-.673c0-2.823-2.554-4.525-7.267-4.525-5.182 0-7.933 2.013-7.933 5.148 0 2.246 1.394 3.545 4.256 4.366 2.097.602 3.303 1.098 4.214 1.5.481.213.641.688.574 1.139-.093.622-.467 1.005-1.414 1.005-1.16 0-1.486-.696-1.486-1.785v-.133h-6.391v-.001zM91.113 78.603H75.91v4.269h4.233v11.716h6.763V82.872h4.207v-4.269zM94.023 94.588h13.883v-4.157h-6.992v-1.89h6.531v-4.113h-6.531v-1.712h6.764v-4.113H94.023v15.985zM112.137 94.588h6.652v-5.694c.223-.022.443-.022.615-.022 1.596 0 1.834.58 2.086 2.315l.174 1.178c.098.711.293 1.445.516 2.223h6.752c-.295-1.178-.516-2.134-.613-2.846l-.223-1.712c-.299-2.314-1.18-3.183-2.969-3.539 1.824-.448 3.191-1.824 3.191-3.744 0-3.198-2.018-4.146-6.877-4.146h-9.305v15.987h.001zm6.652-9.62v-2.786c.297-.022.541-.022.762-.022 1.498 0 2.162.365 2.162 1.358 0 1.016-.836 1.473-2.432 1.473-.146 0-.318 0-.492-.023zM137.5 85.469l3.568 9.119h7.737V78.603h-5.227v8.139l-2.953-8.139h-8.35v15.985h5.225v-9.119zM84.588 104.547l3.568 9.119h7.735V97.682h-5.226v8.138l-2.952-8.138h-8.351v15.984h5.226v-9.119zM137.662 104.547l3.568 9.119h7.735V97.682h-5.227v8.138l-2.951-8.138h-8.351v15.984h5.226v-9.119zM58.671 97.682v9.631c0 1.842.122 3.287 1.543 4.666 1.471 1.422 3.604 1.959 6.643 1.959 5.588 0 8.209-2.094 8.209-6.625v-9.631h-6.642v9.875c0 1.309-.588 2.02-1.568 2.02-1.03 0-1.569-.666-1.569-2.02v-9.875h-6.616zM107.049 97.682h-6.811v15.986h6.811V97.682zM119.52 113.916c6.059 0 9.301-2.932 9.301-8.357 0-5.336-3.268-8.377-9.076-8.377-5.859 0-9.15 3.041-9.15 8.4-.001 5.313 3.264 8.334 8.925 8.334zm.199-13.023c1.57 0 1.945 1.387 1.945 4.414 0 3.379-.4 4.918-1.971 4.918-1.545 0-1.943-1.514-1.943-4.59 0-3.229.348-4.742 1.969-4.742zM182.48 78.372c-.701 0-1.332.253-1.809.739a2.66 2.66 0 0 0-.791 1.868c0 .688.268 1.325.762 1.826.5.508 1.143.783 1.838.783.682 0 1.34-.275 1.854-.776a2.498 2.498 0 0 0 .762-1.833 2.6 2.6 0 0 0-.754-1.832 2.565 2.565 0 0 0-1.862-.775zm2.268 2.629c0 .6-.23 1.158-.658 1.571a2.291 2.291 0 0 1-1.623.666c-.578 0-1.15-.238-1.58-.673a2.254 2.254 0 0 1-.664-1.586c0-.593.244-1.173.688-1.622a2.177 2.177 0 0 1 1.578-.645c.623 0 1.182.232 1.615.674.419.419.644.984.644 1.615zm-2.193-1.55h-1.115v2.956h.557v-1.261h.551l.6 1.261h.625l-.66-1.348c.428-.087.674-.377.674-.797-.002-.536-.408-.811-1.232-.811zm-.104.362c.523 0 .762.145.762.507 0 .347-.238.471-.746.471h-.471v-.978h.455z" />
        </g>
    </symbol>
    <symbol id="icon-logo-klarna" viewBox="0 0 452.9 101.1">
        <path d="M79.7,0H57.4c0,18.3-8.4,35-23,46l-8.8,6.6l34.2,46.6h28.1L56.4,56.3C71.3,41.5,79.7,21.5,79.7,0z"/>
        <rect width="22.8" height="99.2"/>
        <rect x="94.5" width="21.5" height="99.2"/>
        <path d="M304.6,28.7c-8.2,0-16,2.5-21.2,9.6v-7.7H263v68.6h20.7v-36c0-10.4,7-15.5,15.4-15.5c9,0,14.2,5.4,14.2,15.4v36.2h20.5V55.6
            C333.8,39.6,321.1,28.7,304.6,28.7z"/>
        <path d="M181,30.6V35c-5.8-4-12.8-6.3-20.4-6.3c-20,0-36.2,16.2-36.2,36.2s16.2,36.2,36.2,36.2c7.6,0,14.6-2.3,20.4-6.3v4.4h20.5
            V30.6H181z M162.3,82.5c-10.3,0-18.6-7.9-18.6-17.6s8.3-17.6,18.6-17.6c10.3,0,18.6,7.9,18.6,17.6S172.6,82.5,162.3,82.5z"/>
        <path d="M233.3,39.5v-8.9h-21v68.6h21.1v-32c0-10.8,11.7-16.6,19.8-16.6c0.1,0,0.2,0,0.2,0v-20C245.1,30.6,237.4,34.2,233.3,39.5z"
            />
        <path d="M397.6,30.6V35c-5.8-4-12.8-6.3-20.4-6.3c-20,0-36.2,16.2-36.2,36.2s16.2,36.2,36.2,36.2c7.6,0,14.6-2.3,20.4-6.3v4.4h20.5
            V30.6H397.6z M378.9,82.5c-10.3,0-18.6-7.9-18.6-17.6s8.3-17.6,18.6-17.6c10.3,0,18.6,7.9,18.6,17.6
            C397.6,74.6,389.2,82.5,378.9,82.5z"/>
        <g>
            <path d="M434,32.6c0-1-0.7-1.6-1.8-1.6h-1.9v5.2h0.9v-1.9h1l0.8,1.9h1l-0.9-2.1C433.7,33.8,434,33.3,434,32.6z M432.2,33.4h-1v-1.6
                h1c0.6,0,0.9,0.3,0.9,0.8S432.9,33.4,432.2,33.4z"/>
            <path d="M431.9,28.8c-2.7,0-4.9,2.2-4.9,4.9c0.1,2.7,2.2,4.9,4.9,4.9s4.9-2.2,4.9-4.9C436.8,31,434.6,28.8,431.9,28.8z M431.9,37.7
                c-2.2,0-3.9-1.8-3.9-4c0-2.2,1.8-4,3.9-4c2.2,0,3.9,1.8,3.9,4C435.8,35.9,434,37.7,431.9,37.7z"/>
        </g>
        <path d="M440,74.9c-7.1,0-12.9,5.8-12.9,12.9c0,7.1,5.8,12.9,12.9,12.9c7.1,0,12.9-5.8,12.9-12.9C452.9,80.6,447.1,74.9,440,74.9z"
            />
    </symbol>
    <symbol viewBox="0 0 780 500" id="icon-logo-mastercard">
        <rect width="780" height="500" fill="#FFF" stroke-width="15px" stroke="#fff"></rect><path d="m449.01 250c0 99.143-80.371 179.5-179.51 179.5s-179.5-80.361-179.5-179.5c0-99.133 80.362-179.5 179.5-179.5 99.137 0 179.51 80.371 179.51 179.5" fill="#D9222A"></path><path d="m510.49 70.496c-46.379 0-88.643 17.596-120.5 46.467-6.49 5.889-12.548 12.237-18.125 18.996h36.267c4.965 6.037 9.536 12.387 13.685 19.012h-63.635c-3.827 6.122-7.281 12.469-10.342 19.008h84.313c2.894 6.185 5.431 12.53 7.601 19.004h-99.513c-2.09 6.234-3.832 12.58-5.217 19.008h109.94c2.689 12.49 4.045 25.231 4.042 38.008 0 19.935-3.254 39.112-9.254 57.021h-99.513c2.164 6.477 4.7 12.824 7.596 19.008h84.316c-3.063 6.541-6.519 12.889-10.347 19.013h-63.625c4.147 6.62 8.719 12.966 13.685 18.996h36.259c-5.57 6.772-11.63 13.127-18.13 19.013 31.857 28.866 74.117 46.454 120.5 46.454 99.139 0 179.51-80.361 179.51-179.5 0-99.129-80.371-179.5-179.51-179.5" fill="#EE9F2D"></path><path d="m666.07 350.06c0-3.199 2.592-5.801 5.796-5.801s5.796 2.602 5.796 5.801-2.592 5.801-5.796 5.801-5.796-2.602-5.796-5.801zm5.796 4.408c2.434-1e-3 4.407-1.974 4.408-4.408 0-2.432-1.971-4.402-4.402-4.404h-6e-3c-2.429-3e-3 -4.4 1.963-4.404 4.391v0.014c-2e-3 2.433 1.968 4.406 4.4 4.408 1e-3 -1e-3 3e-3 -1e-3 4e-3 -1e-3zm-0.783-1.86h-1.187v-5.096h2.149c0.45 0 0.908 0 1.305 0.254 0.413 0.279 0.646 0.771 0.646 1.279 0 0.571-0.338 1.104-0.884 1.312l0.938 2.25h-1.315l-0.779-2.017h-0.871l-2e-3 2.018zm0-2.89h0.658c0.246 0 0.505 0.021 0.726-0.1 0.195-0.125 0.296-0.359 0.296-0.584-5e-3 -0.209-0.112-0.402-0.288-0.518-0.207-0.129-0.536-0.101-0.758-0.101h-0.634v1.303zm-443.5-80.063c-2.046-0.238-2.945-0.301-4.35-0.301-11.046 0-16.638 3.787-16.638 11.268 0 4.611 2.729 7.545 6.987 7.545 7.939 0 13.659-7.559 14.001-18.512zm14.171 32.996h-16.146l0.371-7.676c-4.926 6.065-11.496 8.949-20.426 8.949-10.563 0-17.804-8.25-17.804-20.229 0-18.024 12.596-28.541 34.217-28.541 2.208 0 5.042 0.199 7.941 0.57 0.604-2.441 0.763-3.488 0.763-4.801 0-4.908-3.396-6.737-12.5-6.737-9.533-0.108-17.396 2.271-20.625 3.333 0.204-1.229 2.7-16.659 2.7-16.659 9.712-2.846 16.116-3.917 23.325-3.917 16.732 0 25.596 7.513 25.579 21.712 0.033 3.805-0.597 8.5-1.579 14.671-1.691 10.734-5.32 33.721-5.816 39.325zm-62.158 0h-19.487l11.162-69.997-24.925 69.997h-13.279l-1.642-69.597-11.733 69.597h-18.242l15.237-91.056h28.021l1.7 50.968 17.092-50.968h31.167l-15.071 91.056m354.97-32.996c-2.037-0.238-2.941-0.301-4.342-0.301-11.041 0-16.634 3.787-16.634 11.268 0 4.611 2.726 7.545 6.983 7.545 7.94 0 13.664-7.559 13.993-18.512zm14.184 32.996h-16.146l0.366-7.676c-4.926 6.065-11.5 8.949-20.422 8.949-10.565 0-17.8-8.25-17.8-20.229 0-18.024 12.588-28.541 34.213-28.541 2.208 0 5.037 0.199 7.934 0.57 0.604-2.441 0.763-3.488 0.763-4.801 0-4.908-3.392-6.737-12.496-6.737-9.533-0.108-17.387 2.271-20.629 3.333 0.204-1.229 2.709-16.659 2.709-16.659 9.712-2.846 16.112-3.917 23.313-3.917 16.74 0 25.604 7.513 25.587 21.712 0.032 3.805-0.597 8.5-1.579 14.671-1.684 10.734-5.321 33.721-5.813 39.325zm-220.39-1.125c-5.333 1.679-9.491 2.398-14 2.398-9.962 0-15.399-5.725-15.399-16.267-0.142-3.271 1.433-11.88 2.671-19.737 1.125-6.917 8.449-50.529 8.449-50.529h19.371l-2.263 11.208h11.699l-2.642 17.796h-11.742c-2.25 14.083-5.454 31.625-5.491 33.95 0 3.816 2.037 5.483 6.671 5.483 2.221 0 3.94-0.227 5.254-0.7l-2.578 16.398m59.392-0.6c-6.654 2.034-13.075 3.017-19.879 3-21.684-0.021-32.987-11.346-32.987-33.032 0-25.313 14.38-43.947 33.899-43.947 15.971 0 26.171 10.433 26.171 26.796 0 5.429-0.7 10.729-2.388 18.212h-38.574c-1.305 10.741 5.57 15.217 16.837 15.217 6.935 0 13.188-1.429 20.142-4.663l-3.221 18.417zm-10.888-43.9c0.107-1.543 2.055-13.217-9.013-13.217-6.171 0-10.583 4.704-12.38 13.217h21.393zm-123.42-5.017c0 9.367 4.542 15.826 14.842 20.676 7.892 3.709 9.112 4.81 9.112 8.17 0 4.617-3.479 6.701-11.191 6.701-5.813 0-11.221-0.908-17.458-2.922 0 0-2.563 16.321-2.68 17.102 4.43 0.967 8.38 1.861 20.279 2.19 20.563 0 30.059-7.829 30.059-24.75 0-10.175-3.976-16.146-13.737-20.634-8.171-3.75-9.108-4.587-9.108-8.045 0-4.004 3.237-6.046 9.537-6.046 3.825 0 9.05 0.408 14 1.112l2.775-17.175c-5.046-0.8-12.696-1.442-17.15-1.442-21.801 1e-3 -29.347 11.388-29.28 25.063m229.09-23.116c5.412 0 10.458 1.421 17.412 4.921l3.188-19.763c-2.854-1.121-12.904-7.7-21.417-7.7-13.041 0-24.065 6.471-31.82 17.15-11.309-3.746-15.958 3.825-21.657 11.367l-5.063 1.179c0.383-2.483 0.729-4.95 0.612-7.446h-17.896c-2.445 22.917-6.778 46.128-10.171 69.075l-0.884 4.976h19.496c3.254-21.143 5.037-34.68 6.121-43.842l7.341-4.084c1.097-4.078 4.529-5.458 11.417-5.291-0.926 5.008-1.389 10.091-1.383 15.184 0 24.225 13.07 39.308 34.05 39.308 5.404 0 10.041-0.712 17.221-2.658l3.43-20.759c-6.458 3.181-11.759 4.677-16.559 4.677-11.329 0-18.184-8.363-18.184-22.185 0-20.051 10.196-34.109 24.746-34.109"></path><path d="m185.21 297.24h-19.491l11.171-69.988-24.926 69.988h-13.283l-1.642-69.588-11.733 69.588h-18.241l15.237-91.042h28.021l0.788 56.362 18.904-56.362h30.267l-15.072 91.042" fill="#fff"></path><path d="m647.52 211.6l-4.321 26.309c-5.329-7.013-11.054-12.088-18.612-12.088-9.833 0-18.783 7.455-24.642 18.425-8.158-1.692-16.597-4.563-16.597-4.563l-4e-3 0.067c0.658-6.134 0.921-9.875 0.862-11.146h-17.9c-2.438 22.917-6.771 46.128-10.157 69.075l-0.893 4.976h19.492c2.633-17.096 4.648-31.291 6.133-42.551 6.658-6.016 9.992-11.266 16.721-10.916-2.979 7.205-4.725 15.503-4.725 24.017 0 18.513 9.366 30.725 23.533 30.725 7.142 0 12.621-2.462 17.967-8.171l-0.913 6.884h18.435l14.842-91.042-19.221-1e-3zm-24.371 73.941c-6.634 0-9.983-4.908-9.983-14.596 0-14.555 6.271-24.875 15.112-24.875 6.695 0 10.32 5.104 10.32 14.509 1e-3 14.679-6.37 24.962-15.449 24.962z"></path><path d="m233.19 264.26c-2.042-0.236-2.946-0.299-4.346-0.299-11.046 0-16.634 3.787-16.634 11.266 0 4.604 2.729 7.547 6.979 7.547 7.947-1e-3 13.668-7.559 14.001-18.514zm14.178 32.984h-16.146l0.367-7.663c-4.921 6.054-11.5 8.95-20.421 8.95-10.567 0-17.805-8.25-17.805-20.229 0-18.032 12.592-28.542 34.217-28.542 2.208 0 5.042 0.2 7.938 0.571 0.604-2.441 0.763-3.487 0.763-4.808 0-4.909-3.392-6.729-12.496-6.729-9.537-0.108-17.396 2.271-20.629 3.321 0.204-1.225 2.7-16.637 2.7-16.637 9.708-2.858 16.12-3.929 23.32-3.929 16.737 0 25.604 7.517 25.588 21.704 0.029 3.821-0.604 8.513-1.584 14.675-1.687 10.724-5.319 33.724-5.812 39.316zm261.38-88.592l-3.191 19.767c-6.95-3.496-12-4.92-17.407-4.92-14.551 0-24.75 14.058-24.75 34.106 0 13.821 6.857 22.181 18.184 22.181 4.8 0 10.096-1.492 16.554-4.675l-3.421 20.75c-7.184 1.957-11.816 2.67-17.225 2.67-20.977 0-34.051-15.084-34.051-39.309 0-32.55 18.059-55.3 43.888-55.3 8.507 1e-3 18.561 3.609 21.419 4.73m31.443 55.608c-2.041-0.236-2.941-0.299-4.347-0.299-11.041 0-16.633 3.787-16.633 11.266 0 4.604 2.729 7.547 6.983 7.547 7.938-1e-3 13.663-7.559 13.997-18.514zm14.178 32.984h-16.15l0.371-7.663c-4.925 6.054-11.5 8.95-20.421 8.95-10.563 0-17.804-8.25-17.804-20.229 0-18.032 12.596-28.542 34.212-28.542 2.213 0 5.042 0.2 7.941 0.571 0.601-2.441 0.763-3.487 0.763-4.808 0-4.909-3.393-6.729-12.495-6.729-9.533-0.108-17.396 2.271-20.63 3.321 0.204-1.225 2.704-16.637 2.704-16.637 9.709-2.858 16.116-3.929 23.316-3.929 16.741 0 25.604 7.517 25.583 21.704 0.033 3.821-0.596 8.513-1.579 14.675-1.682 10.724-5.323 33.724-5.811 39.316zm-220.39-1.121c-5.338 1.679-9.496 2.408-14 2.408-9.962 0-15.399-5.726-15.399-16.268-0.138-3.279 1.438-11.88 2.675-19.736 1.12-6.926 8.445-50.534 8.445-50.534h19.368l-2.26 11.212h9.941l-2.646 17.788h-9.975c-2.25 14.092-5.463 31.62-5.496 33.95 0 3.83 2.041 5.482 6.671 5.482 2.221 0 3.938-0.216 5.254-0.691l-2.578 16.389m59.391-0.592c-6.65 2.033-13.079 3.012-19.879 3-21.685-0.021-32.987-11.346-32.987-33.033 0-25.321 14.379-43.95 33.899-43.95 15.971 0 26.171 10.429 26.171 26.8 0 5.434-0.7 10.733-2.384 18.212h-38.574c-1.306 10.741 5.569 15.222 16.837 15.222 6.93 0 13.188-1.435 20.138-4.677l-3.221 18.426zm-10.891-43.912c0.116-1.538 2.06-13.217-9.013-13.217-6.167 0-10.579 4.717-12.375 13.217h21.388zm-123.42-5.005c0 9.367 4.542 15.818 14.842 20.675 7.892 3.709 9.112 4.812 9.112 8.172 0 4.616-3.483 6.699-11.188 6.699-5.816 0-11.225-0.908-17.467-2.921 0 0-2.554 16.321-2.671 17.101 4.421 0.967 8.375 1.85 20.275 2.191 20.566 0 30.059-7.829 30.059-24.746 0-10.18-3.971-16.15-13.737-20.637-8.167-3.759-9.113-4.584-9.113-8.046 0-4 3.246-6.059 9.542-6.059 3.821 0 9.046 0.421 14.004 1.125l2.771-17.179c-5.042-0.8-12.692-1.441-17.146-1.441-21.804 0-29.346 11.379-29.283 25.066m398.45 50.63h-18.438l0.917-6.893c-5.347 5.717-10.825 8.18-17.968 8.18-14.166 0-23.528-12.213-23.528-30.726 0-24.63 14.521-45.392 31.708-45.392 7.559 0 13.279 3.087 18.604 10.096l4.325-26.308h19.221l-14.841 91.043zm-28.746-17.109c9.075 0 15.45-10.283 15.45-24.953 0-9.405-3.629-14.509-10.325-14.509-8.837 0-15.115 10.315-15.115 24.875-1e-3 9.686 3.357 14.587 9.99 14.587zm-56.842-56.929c-2.441 22.917-6.773 46.13-10.162 69.063l-0.892 4.976h19.491c6.972-45.275 8.658-54.117 19.588-53.009 1.742-9.267 4.982-17.383 7.399-21.479-8.163-1.7-12.721 2.913-18.688 11.675 0.471-3.788 1.333-7.467 1.162-11.225l-17.898-1e-3m-160.42 0c-2.446 22.917-6.779 46.13-10.167 69.063l-0.888 4.976h19.5c6.963-45.275 8.646-54.117 19.57-53.009 1.75-9.267 4.991-17.383 7.399-21.479-8.154-1.7-12.717 2.913-18.679 11.675 0.471-3.788 1.324-7.467 1.162-11.225l-17.897-1e-3m254.57 68.241c-4e-3 -3.199 2.586-5.795 5.784-5.799h0.012c3.197-4e-3 5.793 2.586 5.796 5.783v0.016c-1e-3 3.201-2.595 5.795-5.796 5.797-3.201-2e-3 -5.795-2.596-5.796-5.797zm5.796 4.405c2.431 2e-3 4.402-1.969 4.403-4.399v-4e-3c3e-3 -2.433-1.968-4.406-4.399-4.408h-4e-3c-2.435 1e-3 -4.407 1.974-4.408 4.408 2e-3 2.432 1.975 4.403 4.408 4.403zm-0.784-1.871h-1.188v-5.082h2.153c0.446 0 0.909 9e-3 1.296 0.254 0.417 0.283 0.654 0.767 0.654 1.274 0 0.575-0.337 1.112-0.888 1.317l0.941 2.236h-1.32l-0.779-2.009h-0.87l1e-3 2.01zm0-2.879h0.653c0.246 0 0.513 0.019 0.729-0.1 0.196-0.125 0.296-0.361 0.296-0.588-9e-3 -0.21-0.114-0.404-0.287-0.523-0.204-0.117-0.542-0.084-0.763-0.084h-0.629l1e-3 1.295z" fill="#fff"></path>
    </symbol>
    <symbol viewBox="0 0 780 500" id="icon-logo-paypal">
        <rect width="780" height="500" fill="#FFF"></rect><path d="m168.38 169.85c-8.399-5.774-19.359-8.668-32.88-8.668h-52.346c-4.145 0-6.435 2.073-6.87 6.214l-21.265 133.48c-0.221 1.311 0.107 2.51 0.981 3.6 0.869 1.093 1.962 1.636 3.271 1.636h24.864c4.361 0 6.758-2.068 7.198-6.216l5.888-35.985c0.215-1.744 0.982-3.162 2.291-4.254 1.308-1.09 2.944-1.804 4.907-2.13 1.963-0.324 3.814-0.487 5.562-0.487 1.743 0 3.814 0.11 6.217 0.327 2.397 0.218 3.925 0.324 4.58 0.324 18.756 0 33.478-5.285 44.167-15.866 10.684-10.577 16.032-25.244 16.032-44.004 0-12.868-4.202-22.192-12.597-27.975zm-26.99 40.08c-1.094 7.635-3.926 12.649-8.506 15.049-4.581 2.403-11.124 3.597-19.629 3.597l-10.797 0.328 5.563-35.007c0.434-2.397 1.851-3.597 4.252-3.597h6.218c8.72 0 15.049 1.257 18.975 3.761 3.924 2.51 5.233 7.802 3.924 15.869z" fill="#003087"></path><path d="m720.79 161.18h-24.208c-2.405 0-3.821 1.2-4.253 3.599l-21.267 136.1-0.328 0.654c0 1.096 0.437 2.127 1.311 3.109 0.868 0.979 1.963 1.471 3.271 1.471h21.595c4.138 0 6.429-2.068 6.871-6.215l21.265-133.81v-0.325c-2e-3 -3.053-1.424-4.58-4.257-4.58z" fill="#009CDE"></path><path d="m428.31 213.86c0-1.088-0.438-2.126-1.306-3.106-0.875-0.981-1.857-1.474-2.945-1.474h-25.191c-2.404 0-4.366 1.096-5.89 3.271l-34.679 51.04-14.394-49.075c-1.096-3.488-3.493-5.236-7.198-5.236h-24.54c-1.093 0-2.075 0.492-2.942 1.474-0.875 0.98-1.309 2.019-1.309 3.106 0 0.44 2.127 6.871 6.379 19.303 4.252 12.434 8.833 25.848 13.741 40.244 4.908 14.394 7.468 22.031 7.688 22.898-17.886 24.43-26.826 37.518-26.826 39.26 0 2.838 1.417 4.254 4.253 4.254h25.191c2.399 0 4.361-1.088 5.89-3.271l83.427-120.4c0.433-0.433 0.651-1.193 0.651-2.289z" fill="#003087"></path><path d="m662.89 209.28h-24.865c-3.056 0-4.904 3.599-5.559 10.797-5.677-8.72-16.031-13.088-31.083-13.088-15.704 0-29.065 5.89-40.077 17.668-11.016 11.779-16.521 25.631-16.521 41.551 0 12.871 3.761 23.121 11.285 30.752 7.524 7.639 17.611 11.451 30.266 11.451 6.323 0 12.757-1.311 19.3-3.926 6.544-2.617 11.665-6.105 15.379-10.469 0 0.219-0.222 1.198-0.654 2.942-0.44 1.748-0.655 3.06-0.655 3.926 0 3.494 1.414 5.234 4.254 5.234h22.576c4.138 0 6.541-2.068 7.193-6.216l13.415-85.389c0.215-1.309-0.111-2.507-0.981-3.599-0.876-1.087-1.964-1.634-3.273-1.634zm-42.694 64.452c-5.562 5.453-12.269 8.179-20.12 8.179-6.328 0-11.449-1.742-15.377-5.234-3.928-3.483-5.891-8.282-5.891-14.396 0-8.064 2.727-14.884 8.181-20.446 5.446-5.562 12.214-8.343 20.284-8.343 6.102 0 11.174 1.8 15.212 5.397 4.032 3.599 6.055 8.563 6.055 14.888-1e-3 7.851-2.783 14.505-8.344 19.955z" fill="#009CDE"></path><path d="m291.23 209.28h-24.864c-3.058 0-4.908 3.599-5.563 10.797-5.889-8.72-16.25-13.088-31.081-13.088-15.704 0-29.065 5.89-40.078 17.668-11.016 11.779-16.521 25.631-16.521 41.551 0 12.871 3.763 23.121 11.288 30.752 7.525 7.639 17.61 11.451 30.262 11.451 6.104 0 12.433-1.311 18.975-3.926 6.543-2.617 11.778-6.105 15.704-10.469-0.875 2.616-1.309 4.907-1.309 6.868 0 3.494 1.417 5.234 4.253 5.234h22.574c4.141 0 6.543-2.068 7.198-6.216l13.413-85.389c0.215-1.309-0.112-2.507-0.981-3.599-0.873-1.087-1.962-1.634-3.27-1.634zm-42.695 64.614c-5.563 5.351-12.382 8.017-20.447 8.017-6.329 0-11.4-1.742-15.214-5.234-3.819-3.483-5.726-8.282-5.726-14.396 0-8.064 2.725-14.884 8.18-20.446 5.449-5.562 12.211-8.343 20.284-8.343 6.104 0 11.175 1.8 15.214 5.398 4.032 3.599 6.052 8.563 6.052 14.888 0 8.069-2.781 14.778-8.343 20.116z" fill="#003087"></path><path d="m540.04 169.85c-8.398-5.774-19.356-8.668-32.879-8.668h-52.02c-4.364 0-6.765 2.073-7.197 6.214l-21.266 133.48c-0.221 1.312 0.106 2.511 0.981 3.601 0.865 1.092 1.962 1.635 3.271 1.635h26.826c2.617 0 4.361-1.416 5.235-4.252l5.89-37.949c0.216-1.744 0.98-3.162 2.29-4.254 1.309-1.09 2.943-1.803 4.908-2.13 1.962-0.324 3.812-0.487 5.562-0.487 1.743 0 3.814 0.11 6.214 0.327 2.399 0.218 3.931 0.324 4.58 0.324 18.76 0 33.479-5.285 44.168-15.866 10.688-10.577 16.031-25.244 16.031-44.004 2e-3 -12.867-4.199-22.191-12.594-27.974zm-33.534 53.82c-4.799 3.271-11.997 4.906-21.592 4.906l-10.47 0.328 5.562-35.007c0.432-2.397 1.849-3.597 4.252-3.597h5.887c4.798 0 8.614 0.218 11.454 0.653 2.831 0.44 5.562 1.799 8.179 4.089 2.618 2.291 3.926 5.618 3.926 9.98 0 9.16-2.402 15.375-7.198 18.648z" fill="#009CDE"></path>
    </symbol>
    <symbol viewBox="0 0 26 26" id="icon-logo-small">
        <path d="M17.647 12.125h-3.323c-.11 0-.197.087-.197.194v2.327c0 .107.087.193.197.193h3.323c.95 0 1.542-.524 1.542-1.357 0-.795-.594-1.358-1.543-1.358zm-2.62-2.423h3.233c2.51 0 3.988 1.57 3.988 3.296 0 1.35-.915 2.345-1.885 2.78-.155.07-.15.283.01.346 1.128.443 1.94 1.623 1.94 3 0 1.96-1.305 3.512-3.837 3.512h-6.96c-.11 0-.197-.087-.197-.194v-9.03L.237 24.49c-.51.508-.148 1.378.57 1.378h24.254c.446 0 .808-.362.808-.808V.81c0-.72-.87-1.08-1.38-.572L15.03 9.702zm-.703 7.562c-.11 0-.197.087-.197.194v2.56c0 .106.087.193.197.193h3.44c1.05 0 1.682-.542 1.682-1.472 0-.815-.593-1.474-1.68-1.474h-3.442z" fill="#000" fill-rule="evenodd" />
    </symbol>
    <symbol viewBox="0 0 34 32" id="icon-pinterest">
        <path d="M1.356 15.647c0 6.24 3.781 11.6 9.192 13.957-0.043-1.064-0.008-2.341 0.267-3.499 0.295-1.237 1.976-8.303 1.976-8.303s-0.491-0.973-0.491-2.411c0-2.258 1.319-3.945 2.962-3.945 1.397 0 2.071 1.041 2.071 2.288 0 1.393-0.895 3.477-1.356 5.408-0.385 1.616 0.817 2.935 2.424 2.935 2.909 0 4.869-3.708 4.869-8.101 0-3.34-2.267-5.839-6.39-5.839-4.658 0-7.56 3.447-7.56 7.297 0 1.328 0.394 2.264 1.012 2.989 0.284 0.333 0.324 0.467 0.221 0.849-0.074 0.28-0.243 0.955-0.313 1.223-0.102 0.386-0.417 0.524-0.769 0.381-2.145-0.869-3.145-3.201-3.145-5.822 0-4.329 3.679-9.519 10.975-9.519 5.863 0 9.721 4.21 9.721 8.729 0 5.978-3.349 10.443-8.285 10.443-1.658 0-3.217-0.889-3.751-1.899 0 0-0.892 3.511-1.080 4.189-0.325 1.175-0.963 2.349-1.546 3.264 1.381 0.405 2.84 0.625 4.352 0.625 8.48 0 15.355-6.822 15.355-15.238s-6.876-15.238-15.355-15.238c-8.48 0-15.356 6.822-15.356 15.238z" />
    </symbol>
    <symbol viewBox="0 0 26 28" id="icon-print">
        <path d="M0 21.5v-6.5q0-1.234 0.883-2.117t2.117-0.883h1v-8.5q0-0.625 0.438-1.062t1.062-0.438h10.5q0.625 0 1.375 0.313t1.188 0.75l2.375 2.375q0.438 0.438 0.75 1.188t0.313 1.375v4h1q1.234 0 2.117 0.883t0.883 2.117v6.5q0 0.203-0.148 0.352t-0.352 0.148h-3.5v2.5q0 0.625-0.438 1.062t-1.062 0.438h-15q-0.625 0-1.062-0.438t-0.438-1.062v-2.5h-3.5q-0.203 0-0.352-0.148t-0.148-0.352zM6 24h14v-4h-14v4zM6 14h14v-6h-2.5q-0.625 0-1.062-0.438t-0.438-1.062v-2.5h-10v10zM22 15q0 0.406 0.297 0.703t0.703 0.297 0.703-0.297 0.297-0.703-0.297-0.703-0.703-0.297-0.703 0.297-0.297 0.703z" />
    </symbol>
    <symbol viewBox="0 0 24 24" id="icon-remove">
        <path d="M19 13H5v-2h14v2z" />
    </symbol>
    <symbol viewBox="0 0 32 32" id="icon-rss">
        <path d="M-0.465347858,2.01048219 C-0.465347858,2.01048219 28.7009958,0.574406533 31,31.3201126 L25.1092027,31.3201126 C25.1092027,31.3201126 26.2597741,8.90749482 -0.465347858,6.89506416 L-0.465347858,2.01048219 L-0.465347858,2.01048219 Z M-0.465347858,12.2127144 C-0.465347858,12.2127144 16.6328276,11.6363594 19.9369779,31.3201126 L14.0472499,31.3201126 C14.0472499,31.3201126 13.3297467,19.6839434 -0.465347858,17.0940884 L-0.465347858,12.2127144 L-0.465347858,12.2127144 Z M2.73614917,25.0304648 C4.79776783,25.0304648 6.47229834,26.7007181 6.47229834,28.766614 C6.47229834,30.8282326 4.79776783,32.5016938 2.73614917,32.5016938 C0.6723919,32.5016938 -1,30.8293019 -1,28.766614 C-1,26.7017874 0.6723919,25.0304648 2.73614917,25.0304648 Z" id="rss-Shape" />
    </symbol>
    <symbol viewBox="0 0 306 306" id="icon-star">
        <polygon points="153,230.775 247.35,299.625 211.65,187.425 306,121.125 191.25,121.125 153,6.375 114.75,121.125 0,121.125 94.35,187.425 58.65,299.625 "></polygon>
    </symbol>
    <symbol viewBox="0 0 32 32" id="icon-stumbleupon">
        <mask id="stumbleupon-mask-2">
            <use href="#path-1" />
        </mask>
        <path d="M31.9250667,16.0373333 C31.9250667,24.8533333 24.7784,32 15.9624,32 C7.14666667,32 0,24.8533333 0,16.0373333 C0,7.2216 7.14666667,0.0749333333 15.9624,0.0749333333 C24.7784,0.0749333333 31.9250667,7.2216 31.9250667,16.0373333 Z M21.9205547,16.3600826 L21.9205547,18.9857015 C21.9205547,19.5214765 21.494073,19.9558236 20.968,19.9558236 C20.441927,19.9558236 20.0154453,19.5214765 20.0154453,18.9857015 L20.0154453,16.4101275 L18.1823358,16.9675798 L16.9525547,16.3839008 L16.9525547,18.9383327 C16.9717372,21.1844666 18.7659562,23 20.976146,23 C23.1984234,23 25,21.1651979 25,18.9019364 L25,16.3600826 L21.9205547,16.3600826 Z M16.9525547,14.2429415 L18.1823358,14.8266205 L20.0154453,14.2691683 L20.0154453,12.9736203 C19.9505401,10.7684323 18.1810219,9 16,9 C13.8268613,9 12.0618102,10.7555866 11.9845547,12.9492669 L11.9845547,18.8684839 C11.9845547,19.404259 11.558073,19.8386061 11.032,19.8386061 C10.505927,19.8386061 10.0794453,19.404259 10.0794453,18.8684839 L10.0794453,16.3600826 L7,16.3600826 L7,18.9019364 C7,21.1651979 8.80131387,23 11.0235912,23 C13.2264234,23 15.0119708,21.1965095 15.0429781,18.9608128 L15.0474453,13.114656 C15.0474453,12.578881 15.473927,12.1445339 16,12.1445339 C16.526073,12.1445339 16.9525547,12.578881 16.9525547,13.114656 L16.9525547,14.2429415 Z" id="stumbleupon-Fill-1" mask="url(#stumbleupon-mask-2)" />
    </symbol>
    <symbol viewBox="0 0 32 32" id="icon-tumblr">
        <path d="M23.852762,25.5589268 C23.2579209,25.8427189 22.1195458,26.089634 21.2697728,26.1120809 C18.7092304,26.1810247 18.2121934,24.3131275 18.1897466,22.9566974 L18.1897466,12.9951133 L24.6159544,12.9951133 L24.6159544,8.15140729 L18.2137967,8.15140729 L18.2137967,0 L13.5256152,0 C13.4486546,0 13.3139736,0.0673405008 13.2963368,0.238898443 C13.0221648,2.73370367 11.8533261,7.11243957 7,8.86168924 L7,12.9951133 L10.2387574,12.9951133 L10.2387574,23.4521311 C10.2387574,27.0307977 12.8794671,32.1166089 19.8508122,31.9979613 C22.2013164,31.9578777 24.8131658,30.9718204 25.3919735,30.1236507 L23.852762,25.5589268" />
    </symbol>
    <symbol viewBox="0 0 43 32" id="icon-twitter">
        <path d="M36.575 5.229c1.756-0.952 3.105-2.46 3.74-4.257-1.644 0.882-3.464 1.522-5.402 1.867-1.551-1.495-3.762-2.429-6.209-2.429-4.697 0-8.506 3.445-8.506 7.694 0 0.603 0.075 1.19 0.22 1.753-7.069-0.321-13.337-3.384-17.532-8.039-0.732 1.136-1.152 2.458-1.152 3.868 0 2.669 1.502 5.024 3.784 6.404-1.394-0.040-2.706-0.386-3.853-0.962-0.001 0.032-0.001 0.064-0.001 0.097 0 3.728 2.932 6.837 6.823 7.544-0.714 0.176-1.465 0.27-2.241 0.27-0.548 0-1.081-0.048-1.6-0.138 1.083 3.057 4.224 5.281 7.946 5.343-2.911 2.064-6.579 3.294-10.564 3.294-0.687 0-1.364-0.036-2.029-0.108 3.764 2.183 8.235 3.457 13.039 3.457 15.646 0 24.202-11.724 24.202-21.891 0-0.334-0.008-0.665-0.025-0.995 1.662-1.085 3.104-2.439 4.244-3.982-1.525 0.612-3.165 1.025-4.885 1.211z" />
    </symbol>
    <symbol viewBox="0 0 32 32" id="icon-youtube">
        <path d="M31.6634051,8.8527593 C31.6634051,8.8527593 31.3509198,6.64879843 30.3919217,5.67824658 C29.1757339,4.40441487 27.8125088,4.39809002 27.1873503,4.32353816 C22.7118278,4 15.9983092,4 15.9983092,4 L15.984407,4 C15.984407,4 9.27104501,4 4.79536595,4.32353816 C4.17017613,4.39809002 2.80745205,4.40441487 1.59082583,5.67824658 C0.631890411,6.64879843 0.319843444,8.8527593 0.319843444,8.8527593 C0.319843444,8.8527593 0,11.4409393 0,14.0290881 L0,16.4554834 C0,19.0436008 0.319843444,21.6317495 0.319843444,21.6317495 C0.319843444,21.6317495 0.631890411,23.8357417 1.59082583,24.8062935 C2.80745205,26.0801566 4.40557339,26.0398591 5.11736986,26.1733699 C7.67602348,26.4187241 15.9913894,26.4946536 15.9913894,26.4946536 C15.9913894,26.4946536 22.7118278,26.4845401 27.1873503,26.1610333 C27.8125088,26.0864501 29.1757339,26.0801566 30.3919217,24.8062935 C31.3509198,23.8357417 31.6634051,21.6317495 31.6634051,21.6317495 C31.6634051,21.6317495 31.9827789,19.0436008 31.9827789,16.4554834 L31.9827789,14.0290881 C31.9827789,11.4409393 31.6634051,8.8527593 31.6634051,8.8527593 Z M12.6895342,19.39582 L12.6880626,10.4095186 L21.3299413,14.9183249 L12.6895342,19.39582 Z" id="youtube-Imported-Layers" />
    </symbol>
    <symbol viewBox="0 0 551.13 551.13" id="slick-arrow-next">
        <path d="m361.679 275.565-223.896 223.897v51.668l275.565-275.565-275.565-275.565v51.668z"></path>
    </symbol>
    <symbol viewBox="0 0 551.13 551.13" id="slick-arrow-prev">
        <path d="m189.451 275.565 223.897-223.897v-51.668l-275.565 275.565 275.565 275.565v-51.668z"></path>
    </symbol>
    <symbol viewBox="0 0 256 512" id="slick-arrow-next2">
        <path d="M17.525 36.465l-7.071 7.07c-4.686 4.686-4.686 12.284 0 16.971L205.947 256 10.454 451.494c-4.686 4.686-4.686 12.284 0 16.971l7.071 7.07c4.686 4.686 12.284 4.686 16.97 0l211.051-211.05c4.686-4.686 4.686-12.284 0-16.971L34.495 36.465c-4.686-4.687-12.284-4.687-16.97 0z" class=""></path>
    </symbol>
    <symbol viewBox="0 0 256 512" id="slick-arrow-prev2">
        <path d="M238.475 475.535l7.071-7.07c4.686-4.686 4.686-12.284 0-16.971L50.053 256 245.546 60.506c4.686-4.686 4.686-12.284 0-16.971l-7.071-7.07c-4.686-4.686-12.284-4.686-16.97 0L10.454 247.515c-4.686 4.686-4.686 12.284 0 16.971l211.051 211.05c4.686 4.686 12.284 4.686 16.97-.001z" class=""></path>
    </symbol>
    <symbol viewBox="0 0 1000 1000" id="slick-arrow-next3">
        <path d="M756.2,741.8L990,508L756.2,274.2l-27,27L918.1,490H10v36h908.1L729.3,714.8L756.2,741.8z"></path>
    </symbol>
    <symbol viewBox="0 0 1000 1000" id="slick-arrow-prev3">
        <path d="M10,508l233.8,233.8l27-27L81.9,526H990v-36H81.9l188.8-188.8l-27-27L10,508z"></path>
    </symbol>
    <symbol viewBox="0 0 448 512" id="icon-long-arrow-right">
        <path d="M311.03 131.515l-7.071 7.07c-4.686 4.686-4.686 12.284 0 16.971L387.887 239H12c-6.627 0-12 5.373-12 12v10c0 6.627 5.373 12 12 12h375.887l-83.928 83.444c-4.686 4.686-4.686 12.284 0 16.971l7.071 7.07c4.686 4.686 12.284 4.686 16.97 0l116.485-116c4.686-4.686 4.686-12.284 0-16.971L328 131.515c-4.686-4.687-12.284-4.687-16.97 0z"></path>
    </symbol>
    <symbol viewBox="0 0 448 512" id="icon-long-arrow-left">
        <path d="M136.97 380.485l7.071-7.07c4.686-4.686 4.686-12.284 0-16.971L60.113 273H436c6.627 0 12-5.373 12-12v-10c0-6.627-5.373-12-12-12H60.113l83.928-83.444c4.686-4.686 4.686-12.284 0-16.971l-7.071-7.07c-4.686-4.686-12.284-4.686-16.97 0l-116.485 116c-4.686 4.686-4.686 12.284 0 16.971l116.485 116c4.686 4.686 12.284 4.686 16.97-.001z"></path>
    </symbol>
    <symbol viewBox="0 0 512 512" id="icon-search">
        <path d="M225.474,0C101.151,0,0,101.151,0,225.474c0,124.33,101.151,225.474,225.474,225.474                 c124.33,0,225.474-101.144,225.474-225.474C450.948,101.151,349.804,0,225.474,0z M225.474,409.323                 c-101.373,0-183.848-82.475-183.848-183.848S124.101,41.626,225.474,41.626s183.848,82.475,183.848,183.848                 S326.847,409.323,225.474,409.323z"></path>
        <path d="M505.902,476.472L386.574,357.144c-8.131-8.131-21.299-8.131-29.43,0c-8.131,8.124-8.131,21.306,0,29.43l119.328,119.328                 c4.065,4.065,9.387,6.098,14.715,6.098c5.321,0,10.649-2.033,14.715-6.098C514.033,497.778,514.033,484.596,505.902,476.472z"></path>
    </symbol>
    <symbol viewBox="0 -28 512.001 512" id="icon-heart">
        <path xmlns="http://www.w3.org/2000/svg" d="m256 455.515625c-7.289062 0-14.316406-2.640625-19.792969-7.4375-20.683593-18.085937-40.625-35.082031-58.21875-50.074219l-.089843-.078125c-51.582032-43.957031-96.125-81.917969-127.117188-119.3125-34.644531-41.804687-50.78125-81.441406-50.78125-124.742187 0-42.070313 14.425781-80.882813 40.617188-109.292969 26.503906-28.746094 62.871093-44.578125 102.414062-44.578125 29.554688 0 56.621094 9.34375 80.445312 27.769531 12.023438 9.300781 22.921876 20.683594 32.523438 33.960938 9.605469-13.277344 20.5-24.660157 32.527344-33.960938 23.824218-18.425781 50.890625-27.769531 80.445312-27.769531 39.539063 0 75.910156 15.832031 102.414063 44.578125 26.191406 28.410156 40.613281 67.222656 40.613281 109.292969 0 43.300781-16.132812 82.9375-50.777344 124.738281-30.992187 37.398437-75.53125 75.355469-127.105468 119.308594-17.625 15.015625-37.597657 32.039062-58.328126 50.167969-5.472656 4.789062-12.503906 7.429687-19.789062 7.429687zm-112.96875-425.523437c-31.066406 0-59.605469 12.398437-80.367188 34.914062-21.070312 22.855469-32.675781 54.449219-32.675781 88.964844 0 36.417968 13.535157 68.988281 43.882813 105.605468 29.332031 35.394532 72.960937 72.574219 123.476562 115.625l.09375.078126c17.660156 15.050781 37.679688 32.113281 58.515625 50.332031 20.960938-18.253907 41.011719-35.34375 58.707031-50.417969 50.511719-43.050781 94.136719-80.222656 123.46875-115.617188 30.34375-36.617187 43.878907-69.1875 43.878907-105.605468 0-34.515625-11.605469-66.109375-32.675781-88.964844-20.757813-22.515625-49.300782-34.914062-80.363282-34.914062-22.757812 0-43.652344 7.234374-62.101562 21.5-16.441406 12.71875-27.894532 28.796874-34.609375 40.046874-3.453125 5.785157-9.53125 9.238282-16.261719 9.238282s-12.808594-3.453125-16.261719-9.238282c-6.710937-11.25-18.164062-27.328124-34.609375-40.046874-18.449218-14.265626-39.34375-21.5-62.097656-21.5zm0 0"/>
    </symbol>
    <symbol viewBox="0 0 511.808 511.808" id="icon-cart">
        <path d="M477.511,491.424l-26.48-348.832c-0.624-8.336-7.584-14.784-15.952-14.784H76.391c-8.368,0-15.328,6.448-15.952,14.8                     l-26.704,352c-0.336,4.432,1.2,8.816,4.224,12.08c3.024,3.264,7.28,5.12,11.728,5.12h412.112c0.096,0,0.208,0,0.32,0                     c8.832,0,16-7.168,16-16.016C478.119,494.288,477.911,492.816,477.511,491.424z M66.935,479.808l24.288-320h329.024l24.288,320                     H66.935z"></path>
        <path d="M255.735,0c-70.576,0-128,57.44-128,128.032v63.776c0,8.832,7.168,16,16,16c8.832,0,16-7.168,16-16v-63.776                     c0-52.96,43.056-96.032,96-96.032c52.944,0,96,43.072,96,96.032v63.776c0,8.832,7.168,16,16,16c8.832,0,16-7.168,16-16v-63.776                     C383.735,57.44,326.311,0,255.735,0z"></path>
    </symbol>
    <symbol viewBox="0 0 448 512" id="icon-user">
        <path d="M313.6 288c-28.7 0-42.5 16-89.6 16-47.1 0-60.8-16-89.6-16C60.2 288 0 348.2 0 422.4V464c0 26.5 21.5 48 48 48h352c26.5 0 48-21.5 48-48v-41.6c0-74.2-60.2-134.4-134.4-134.4zM416 464c0 8.8-7.2 16-16 16H48c-8.8 0-16-7.2-16-16v-41.6C32 365.9 77.9 320 134.4 320c19.6 0 39.1 16 89.6 16 50.4 0 70-16 89.6-16 56.5 0 102.4 45.9 102.4 102.4V464zM224 256c70.7 0 128-57.3 128-128S294.7 0 224 0 96 57.3 96 128s57.3 128 128 128zm0-224c52.9 0 96 43.1 96 96s-43.1 96-96 96-96-43.1-96-96 43.1-96 96-96z"></path>
    </symbol>
    <symbol viewBox="0 0 576 512" id="icon-edit">
        <path d="M402.3 344.9l32-32c5-5 13.7-1.5 13.7 5.7V464c0 26.5-21.5 48-48 48H48c-26.5 0-48-21.5-48-48V112c0-26.5 21.5-48 48-48h273.5c7.1 0 10.7 8.6 5.7 13.7l-32 32c-1.5 1.5-3.5 2.3-5.7 2.3H48v352h352V350.5c0-2.1.8-4.1 2.3-5.6zm156.6-201.8L296.3 405.7l-90.4 10c-26.2 2.9-48.5-19.2-45.6-45.6l10-90.4L432.9 17.1c22.9-22.9 59.9-22.9 82.7 0l43.2 43.2c22.9 22.9 22.9 60 .1 82.8zM460.1 174L402 115.9 216.2 301.8l-7.3 65.3 65.3-7.3L460.1 174zm64.8-79.7l-43.2-43.2c-4.1-4.1-10.8-4.1-14.8 0L436 82l58.1 58.1 30.9-30.9c4-4.2 4-10.8-.1-14.9z"></path>
    </symbol>
    <symbol viewBox="0 0 512.021 512.021" id="icon-phone">
        <path d="m367.988 512.021c-16.528 0-32.916-2.922-48.941-8.744-70.598-25.646-136.128-67.416-189.508-120.795s-95.15-118.91-120.795-189.508c-8.241-22.688-10.673-46.108-7.226-69.612 3.229-22.016 11.757-43.389 24.663-61.809 12.963-18.501 30.245-33.889 49.977-44.5 21.042-11.315 44.009-17.053 68.265-17.053 7.544 0 14.064 5.271 15.645 12.647l25.114 117.199c1.137 5.307-.494 10.829-4.331 14.667l-42.913 42.912c40.482 80.486 106.17 146.174 186.656 186.656l42.912-42.913c3.838-3.837 9.361-5.466 14.667-4.331l117.199 25.114c7.377 1.581 12.647 8.101 12.647 15.645 0 24.256-5.738 47.224-17.054 68.266-10.611 19.732-25.999 37.014-44.5 49.977-18.419 12.906-39.792 21.434-61.809 24.663-6.899 1.013-13.797 1.518-20.668 1.519zm-236.349-479.321c-31.995 3.532-60.393 20.302-79.251 47.217-21.206 30.265-26.151 67.49-13.567 102.132 49.304 135.726 155.425 241.847 291.151 291.151 34.641 12.584 71.866 7.64 102.132-13.567 26.915-18.858 43.685-47.256 47.217-79.251l-95.341-20.43-44.816 44.816c-4.769 4.769-12.015 6.036-18.117 3.168-95.19-44.72-172.242-121.772-216.962-216.962-2.867-6.103-1.601-13.349 3.168-18.117l44.816-44.816z"></path>
    </symbol>
    <symbol viewBox="0 0 384 512" id="icon-order">
        <path d="M219.09 327.42l-45-13.5c-5.16-1.55-8.77-6.78-8.77-12.73 0-7.27 5.3-13.19 11.8-13.19h28.11c4.56 0 8.96 1.29 12.82 3.72 3.24 2.03 7.36 1.91 10.13-.73l11.75-11.21c3.53-3.37 3.33-9.21-.57-12.14-9.1-6.83-20.08-10.77-31.37-11.35V232c0-4.42-3.58-8-8-8h-16c-4.42 0-8 3.58-8 8v24.12c-23.62.63-42.67 20.55-42.67 45.07 0 19.97 12.98 37.81 31.58 43.39l45 13.5c5.16 1.55 8.77 6.78 8.77 12.73 0 7.27-5.3 13.19-11.8 13.19h-28.11c-4.56 0-8.96-1.29-12.82-3.72-3.24-2.03-7.36-1.91-10.13.73l-11.75 11.21c-3.53 3.37-3.33 9.21.57 12.14 9.1 6.83 20.08 10.77 31.37 11.35V440c0 4.42 3.58 8 8 8h16c4.42 0 8-3.58 8-8v-24.12c23.62-.63 42.67-20.54 42.67-45.07 0-19.97-12.98-37.81-31.58-43.39zM72 96h112c4.42 0 8-3.58 8-8V72c0-4.42-3.58-8-8-8H72c-4.42 0-8 3.58-8 8v16c0 4.42 3.58 8 8 8zm120 56v-16c0-4.42-3.58-8-8-8H72c-4.42 0-8 3.58-8 8v16c0 4.42 3.58 8 8 8h112c4.42 0 8-3.58 8-8zm177.9-54.02L286.02 14.1c-9-9-21.2-14.1-33.89-14.1H47.99C21.5.1 0 21.6 0 48.09v415.92C0 490.5 21.5 512 47.99 512h288.02c26.49 0 47.99-21.5 47.99-47.99V131.97c0-12.69-5.1-24.99-14.1-33.99zM256.03 32.59c2.8.7 5.3 2.1 7.4 4.2l83.88 83.88c2.1 2.1 3.5 4.6 4.2 7.4h-95.48V32.59zm95.98 431.42c0 8.8-7.2 16-16 16H47.99c-8.8 0-16-7.2-16-16V48.09c0-8.8 7.2-16.09 16-16.09h176.04v104.07c0 13.3 10.7 23.93 24 23.93h103.98v304.01z"></path>
    </symbol>
    <symbol viewBox="0 0 512 512" id="icon-message">
        <path d="M352 248v-16c0-4.42-3.58-8-8-8H168c-4.42 0-8 3.58-8 8v16c0 4.42 3.58 8 8 8h176c4.42 0 8-3.58 8-8zm-184-56h176c4.42 0 8-3.58 8-8v-16c0-4.42-3.58-8-8-8H168c-4.42 0-8 3.58-8 8v16c0 4.42 3.58 8 8 8zm326.59-27.48c-1.98-1.63-22.19-17.91-46.59-37.53V96c0-17.67-14.33-32-32-32h-46.47c-4.13-3.31-7.71-6.16-10.2-8.14C337.23 38.19 299.44 0 256 0c-43.21 0-80.64 37.72-103.34 55.86-2.53 2.01-6.1 4.87-10.2 8.14H96c-17.67 0-32 14.33-32 32v30.98c-24.52 19.71-44.75 36.01-46.48 37.43A48.002 48.002 0 0 0 0 201.48V464c0 26.51 21.49 48 48 48h416c26.51 0 48-21.49 48-48V201.51c0-14.31-6.38-27.88-17.41-36.99zM256 32c21.77 0 44.64 16.72 63.14 32H192.9c18.53-15.27 41.42-32 63.1-32zM96 96h320v173.35c-32.33 26-65.3 52.44-86.59 69.34-16.85 13.43-50.19 45.68-73.41 45.31-23.21.38-56.56-31.88-73.41-45.32-21.29-16.9-54.24-43.33-86.59-69.34V96zM32 201.48c0-4.8 2.13-9.31 5.84-12.36 1.24-1.02 11.62-9.38 26.16-21.08v75.55c-11.53-9.28-22.51-18.13-32-25.78v-16.33zM480 464c0 8.82-7.18 16-16 16H48c-8.82 0-16-7.18-16-16V258.91c42.75 34.44 99.31 79.92 130.68 104.82 20.49 16.36 56.74 52.53 93.32 52.26 36.45.26 72.27-35.46 93.31-52.26C380.72 338.8 437.24 293.34 480 258.9V464zm0-246.19c-9.62 7.75-20.27 16.34-32 25.79v-75.54c14.44 11.62 24.8 19.97 26.2 21.12 3.69 3.05 5.8 7.54 5.8 12.33v16.3z"></path>
    </symbol>
    <symbol viewBox="0 0 448 512" id="icon-address-book">
        <path d="M436 160c6.6 0 12-5.4 12-12v-40c0-6.6-5.4-12-12-12h-20V64c0-35.3-28.7-64-64-64H64C28.7 0 0 28.7 0 64v384c0 35.3 28.7 64 64 64h288c35.3 0 64-28.7 64-64v-32h20c6.6 0 12-5.4 12-12v-40c0-6.6-5.4-12-12-12h-20v-64h20c6.6 0 12-5.4 12-12v-40c0-6.6-5.4-12-12-12h-20v-64h20zm-52 288c0 17.6-14.4 32-32 32H64c-17.6 0-32-14.4-32-32V64c0-17.6 14.4-32 32-32h288c17.6 0 32 14.4 32 32v384zM208 272c44.2 0 80-35.8 80-80s-35.8-80-80-80-80 35.8-80 80 35.8 80 80 80zm0-128c26.5 0 48 21.5 48 48s-21.5 48-48 48-48-21.5-48-48 21.5-48 48-48zm46.8 144c-19.5 0-24.4 7-46.8 7s-27.3-7-46.8-7c-21.2 0-41.8 9.4-53.8 27.4C100.2 326.1 96 339 96 352.9V392c0 4.4 3.6 8 8 8h16c4.4 0 8-3.6 8-8v-39.1c0-7 2.1-13.8 6-19.6 5.6-8.3 15.8-13.2 27.3-13.2 12.4 0 20.8 7 46.8 7 25.9 0 34.3-7 46.8-7 11.5 0 21.7 5 27.3 13.2 3.9 5.8 6 12.6 6 19.6V392c0 4.4 3.6 8 8 8h16c4.4 0 8-3.6 8-8v-39.1c0-13.9-4.2-26.8-11.4-37.5-12.3-18-32.9-27.4-54-27.4z"></path>
    </symbol>
    <symbol viewBox="0 0 512 512" id="icon-recently-viewed">
       <path d="M20 24h10c6.627 0 12 5.373 12 12v94.625C85.196 57.047 165.239 7.715 256.793 8.001 393.18 8.428 504.213 120.009 504 256.396 503.786 393.181 392.834 504 256 504c-63.926 0-122.202-24.187-166.178-63.908-5.113-4.618-5.354-12.561-.482-17.433l7.069-7.069c4.503-4.503 11.749-4.714 16.482-.454C150.782 449.238 200.935 470 256 470c117.744 0 214-95.331 214-214 0-117.744-95.331-214-214-214-82.862 0-154.737 47.077-190.289 116H164c6.627 0 12 5.373 12 12v10c0 6.627-5.373 12-12 12H20c-6.627 0-12-5.373-12-12V36c0-6.627 5.373-12 12-12zm321.647 315.235l4.706-6.47c3.898-5.36 2.713-12.865-2.647-16.763L272 263.853V116c0-6.627-5.373-12-12-12h-8c-6.627 0-12 5.373-12 12v164.147l84.884 61.734c5.36 3.899 12.865 2.714 16.763-2.646z" class=""></path>
    </symbol>
    <symbol viewBox="0 0 640 512" id="icon-account-settings">
        <path d="M287.4 250.6c2.9-10.4 6.5-20.4 10.9-30-33.6-9.5-58.4-40.1-58.4-76.7 0-44.1 35.9-80 80-80 36.6 0 67.1 24.8 76.7 58.4 9.6-4.4 19.6-8.1 30-10.9C412.6 65.6 370.4 32 320 32c-61.9 0-112 50.1-112 112 0 50.4 33.6 92.6 79.4 106.6zM96 224c44.2 0 80-35.8 80-80s-35.8-80-80-80-80 35.8-80 80 35.8 80 80 80zm0-128c26.5 0 48 21.5 48 48s-21.5 48-48 48-48-21.5-48-48 21.5-48 48-48zm61.1 172.9c-11.9-8.1-26-12.9-41.1-12.9H76c-41.9 0-76 35.9-76 80 0 8.8 7.2 16 16 16s16-7.2 16-16c0-26.5 19.8-48 44-48h40c5.5 0 10.8 1.2 15.7 3.3 7.5-8.5 16.1-16 25.4-22.4zM176 448c-8.8 0-16-7.2-16-16v-44.8c0-16.6 4.9-32.7 14.1-46.4 13.8-20.5 38.4-32.8 65.7-32.8 14.3 0 18.8 2.4 40.7 7.2-.2-3.8-1.4-13.4.6-32.6-16.3-4.3-26.4-6.6-41.3-6.6-36.3 0-71.6 16.2-92.3 46.9-12.4 18.4-19.6 40.5-19.6 64.3V432c0 26.5 21.5 48 48 48h209c-16-8.6-30.6-19.5-43.5-32H176zm304-208.5c-35.6 0-64.5 29-64.5 64.5s28.9 64.5 64.5 64.5 64.5-29 64.5-64.5-28.9-64.5-64.5-64.5zm0 97c-17.9 0-32.5-14.6-32.5-32.5s14.6-32.5 32.5-32.5 32.5 14.6 32.5 32.5-14.6 32.5-32.5 32.5zm148.3-10.2l-16.5-9.5c.8-8.5.8-17.1 0-25.6l16.6-9.5c9.5-5.5 13.8-16.7 10.5-27-7.2-23.4-19.9-45.4-36.7-63.5-7.4-8.1-19.3-9.9-28.8-4.4l-16.5 9.5c-7-5-14.4-9.3-22.2-12.8v-19c0-11-7.5-20.3-18.2-22.7-23.9-5.4-49.3-5.4-73.3 0-10.7 2.4-18.2 11.8-18.2 22.7v19c-7.8 3.5-15.3 7.8-22.2 12.8l-16.5-9.5c-9.5-5.5-21.3-3.7-28.7 4.4-16.8 18.1-29.4 40.1-36.7 63.4-3.3 10.4 1.2 21.8 10.6 27.2l16.5 9.5c-.8 8.5-.8 17.1 0 25.6l-16.6 9.5c-9.3 5.4-13.8 16.9-10.5 27.1 7.3 23.4 19.9 45.4 36.7 63.5 7.4 8 19.2 9.8 28.8 4.4l16.5-9.5c7 5 14.4 9.3 22.2 12.8v19c0 11 7.5 20.3 18.2 22.7 12 2.7 24.3 4 36.6 4s24.7-1.3 36.6-4c10.7-2.4 18.2-11.8 18.2-22.7v-19c7.8-3.5 15.2-7.8 22.2-12.8l16.5 9.5c9.4 5.4 21.3 3.6 28.7-4.4 16.8-18.1 29.4-40.1 36.7-63.4 3.4-10.4-1.1-21.9-10.5-27.3zm-51.6 7.2l29.4 17c-5.3 14.3-13 27.8-22.8 39.5l-29.4-17c-21.4 18.3-24.5 20.1-51.1 29.5v34c-15.1 2.6-30.6 2.6-45.6 0v-34c-26.9-9.5-30.2-11.7-51.1-29.5l-29.4 17c-9.8-11.8-17.6-25.2-22.8-39.5l29.4-17c-4.9-26.8-5.2-30.6 0-59l-29.4-17c5.2-14.3 13-27.7 22.8-39.5l29.4 17c21.4-18.3 24.5-20.1 51.1-29.5v-34c15.1-2.5 30.7-2.5 45.6 0v34c26.8 9.5 30.2 11.6 51.1 29.5l29.4-17c9.8 11.8 17.6 25.2 22.8 39.5l-29.4 17c4.9 26.8 5.2 30.6 0 59z"></path>
    </symbol>
    <symbol viewBox="0 0 512 512" id="icon-sign-out">
        <path d="M48 64h132c6.6 0 12 5.4 12 12v8c0 6.6-5.4 12-12 12H48c-8.8 0-16 7.2-16 16v288c0 8.8 7.2 16 16 16h132c6.6 0 12 5.4 12 12v8c0 6.6-5.4 12-12 12H48c-26.5 0-48-21.5-48-48V112c0-26.5 21.5-48 48-48zm279 19.5l-7.1 7.1c-4.7 4.7-4.7 12.3 0 17l132 131.4H172c-6.6 0-12 5.4-12 12v10c0 6.6 5.4 12 12 12h279.9L320 404.4c-4.7 4.7-4.7 12.3 0 17l7.1 7.1c4.7 4.7 12.3 4.7 17 0l164.5-164c4.7-4.7 4.7-12.3 0-17L344 83.5c-4.7-4.7-12.3-4.7-17 0z"></path>
    </symbol>
    <symbol viewBox="0 0 512 512" id="icon-return">
        <path d="M12 8h27.711c6.739 0 12.157 5.548 11.997 12.286l-2.347 98.568C93.925 51.834 170.212 7.73 256.793 8.001 393.18 8.428 504.213 120.009 504 256.396 503.786 393.181 392.835 504 256 504c-63.926 0-122.202-24.187-166.178-63.908-5.113-4.618-5.354-12.561-.482-17.433l19.738-19.738c4.498-4.498 11.753-4.785 16.501-.552C160.213 433.246 205.895 452 256 452c108.322 0 196-87.662 196-196 0-108.322-87.662-196-196-196-79.545 0-147.941 47.282-178.675 115.302l126.389-3.009c6.737-.16 12.286 5.257 12.286 11.997V212c0 6.627-5.373 12-12 12H12c-6.627 0-12-5.373-12-12V20C0 13.373 5.373 8 12 8z"></path>
    </symbol>
    <symbol viewBox="0 0 576 512" id="icon-payment">
        <path d="M528 32H48C21.5 32 0 53.5 0 80v352c0 26.5 21.5 48 48 48h480c26.5 0 48-21.5 48-48V80c0-26.5-21.5-48-48-48zM48 64h480c8.8 0 16 7.2 16 16v48H32V80c0-8.8 7.2-16 16-16zm480 384H48c-8.8 0-16-7.2-16-16V224h512v208c0 8.8-7.2 16-16 16zm-336-84v8c0 6.6-5.4 12-12 12h-72c-6.6 0-12-5.4-12-12v-8c0-6.6 5.4-12 12-12h72c6.6 0 12 5.4 12 12zm192 0v8c0 6.6-5.4 12-12 12H236c-6.6 0-12-5.4-12-12v-8c0-6.6 5.4-12 12-12h136c6.6 0 12 5.4 12 12z" class=""></path>
    </symbol>
    <symbol viewBox="0 0 512 512" id="icon-question">
        <circle cx="256" cy="378.5" r="25"></circle>
        <path d="M256,0C114.516,0,0,114.497,0,256c0,141.484,114.497,256,256,256c141.484,0,256-114.497,256-256                 C512,114.516,397.503,0,256,0z M256,472c-119.377,0-216-96.607-216-216c0-119.377,96.607-216,216-216                 c119.377,0,216,96.607,216,216C472,375.377,375.393,472,256,472z"></path>
        <path d="M256,128.5c-44.112,0-80,35.888-80,80c0,11.046,8.954,20,20,20s20-8.954,20-20c0-22.056,17.944-40,40-40                 c22.056,0,40,17.944,40,40c0,22.056-17.944,40-40,40c-11.046,0-20,8.954-20,20v50c0,11.046,8.954,20,20,20                 c11.046,0,20-8.954,20-20v-32.531c34.466-8.903,60-40.26,60-77.469C336,164.388,300.112,128.5,256,128.5z"></path>
    </symbol>
    <symbol viewBox="0 0 36.447 36.447" id="icon-booking">
        <path d="M30.224,3.948h-1.098V2.75c0-1.517-1.197-2.75-2.67-2.75c-1.474,0-2.67,1.233-2.67,2.75v1.197h-2.74V2.75                 c0-1.517-1.197-2.75-2.67-2.75c-1.473,0-2.67,1.233-2.67,2.75v1.197h-2.74V2.75c0-1.517-1.197-2.75-2.67-2.75                 c-1.473,0-2.67,1.233-2.67,2.75v1.197H6.224c-2.343,0-4.25,1.907-4.25,4.25v24c0,2.343,1.907,4.25,4.25,4.25h24                 c2.344,0,4.25-1.907,4.25-4.25v-24C34.474,5.855,32.567,3.948,30.224,3.948z M25.286,2.75c0-0.689,0.525-1.25,1.17-1.25                 c0.646,0,1.17,0.561,1.17,1.25v4.896c0,0.689-0.524,1.25-1.17,1.25c-0.645,0-1.17-0.561-1.17-1.25V2.75z M17.206,2.75                 c0-0.689,0.525-1.25,1.17-1.25s1.17,0.561,1.17,1.25v4.896c0,0.689-0.525,1.25-1.17,1.25s-1.17-0.561-1.17-1.25V2.75z M9.125,2.75                 c0-0.689,0.525-1.25,1.17-1.25s1.17,0.561,1.17,1.25v4.896c0,0.689-0.525,1.25-1.17,1.25s-1.17-0.561-1.17-1.25V2.75z                  M31.974,32.198c0,0.965-0.785,1.75-1.75,1.75h-24c-0.965,0-1.75-0.785-1.75-1.75v-22h27.5V32.198z"></path>
        <rect x="6.724" y="14.626" width="4.595" height="4.089"></rect>
        <rect x="12.857" y="14.626" width="4.596" height="4.089"></rect>
        <rect x="18.995" y="14.626" width="4.595" height="4.089"></rect>
        <rect x="25.128" y="14.626" width="4.596" height="4.089"></rect>
        <rect x="6.724" y="20.084" width="4.595" height="4.086"></rect>
        <rect x="12.857" y="20.084" width="4.596" height="4.086"></rect>
        <rect x="18.995" y="20.084" width="4.595" height="4.086"></rect>
        <rect x="25.128" y="20.084" width="4.596" height="4.086"></rect>
        <rect x="6.724" y="25.54" width="4.595" height="4.086"></rect>
        <rect x="12.857" y="25.54" width="4.596" height="4.086"></rect>
        <rect x="18.995" y="25.54" width="4.595" height="4.086"></rect>
        <rect x="25.128" y="25.54" width="4.596" height="4.086"></rect>
    </symbol>
    <symbol id="icon-no-products" viewBox="0 0 455 455">
        <g>
            <path d="M360.967,130.599c-4.06-0.818-8.018,1.8-8.841,5.86c-0.823,4.06,1.801,8.018,5.86,8.841
                     c1.147,0.232,2.013,1.286,2.013,2.45v160c0,1.355-1.145,2.5-2.5,2.5H179.676c-4.142,0-7.5,3.357-7.5,7.5s3.358,7.5,7.5,7.5H357.5
                     c9.649,0,17.5-7.851,17.5-17.5v-160C375,139.46,369.099,132.247,360.967,130.599z"></path>
            <path d="M274.824,130.25H97.5c-9.649,0-17.5,7.851-17.5,17.5v160c0,8.063,5.48,15.046,13.326,16.982
                     c0.604,0.149,1.208,0.221,1.803,0.221c3.369,0,6.432-2.287,7.276-5.705c0.992-4.021-1.463-8.086-5.484-9.078
                     c-0.955-0.235-1.92-1.143-1.92-2.42v-160c0-1.355,1.145-2.5,2.5-2.5h177.324c4.142,0,7.5-3.357,7.5-7.5
                     S278.966,130.25,274.824,130.25z"></path>
            <path d="M235.363,170.798c-2.655-0.363-5.3-0.548-7.863-0.548c-31.706,0-57.5,25.794-57.5,57.5c0,2.563,0.185,5.209,0.548,7.863
                     c0.515,3.759,3.731,6.483,7.421,6.483c0.339,0,0.682-0.023,1.027-0.07c4.104-0.562,6.975-4.345,6.413-8.448
                     c-0.271-1.982-0.409-3.943-0.409-5.828c0-23.435,19.065-42.5,42.5-42.5c1.884,0,3.845,0.138,5.828,0.409
                     c4.108,0.564,7.886-2.309,8.448-6.413C242.338,175.143,239.467,171.359,235.363,170.798z"></path>
            <path d="M219.127,284.636c2.789,0.407,5.605,0.614,8.373,0.614c31.706,0,57.5-25.794,57.5-57.5c0-2.77-0.207-5.587-0.613-8.373
                     c-0.599-4.099-4.408-6.934-8.505-6.337c-4.099,0.599-6.936,4.406-6.337,8.505c0.303,2.071,0.456,4.158,0.456,6.205
                     c0,23.435-19.065,42.5-42.5,42.5c-2.044,0-4.132-0.153-6.205-0.456c-4.099-0.6-7.907,2.238-8.505,6.337
                     S215.028,284.037,219.127,284.636z"></path>
            <path d="M318.5,203.25c9.098,0,16.5-7.402,16.5-16.5c0-8.318-6.227-15.355-14.484-16.37c-2.293-0.277-4.585,0.509-6.218,2.142
                     l-10.027,10.027c-1.633,1.632-2.422,3.926-2.141,6.217C303.145,197.023,310.183,203.25,318.5,203.25z"></path>
            <path d="M117.5,114.75h30c4.142,0,7.5-3.357,7.5-7.5s-3.358-7.5-7.5-7.5h-30c-4.142,0-7.5,3.357-7.5,7.5
                     S113.358,114.75,117.5,114.75z"></path>
            <path d="M388.367,66.633C345.397,23.664,288.268,0,227.5,0S109.603,23.664,66.633,66.633C23.664,109.603,0,166.732,0,227.5
                     s23.664,117.897,66.633,160.867C109.603,431.336,166.732,455,227.5,455s117.897-23.664,160.867-66.633
                     C431.336,345.397,455,288.268,455,227.5S431.336,109.603,388.367,66.633z M15,227.5C15,110.327,110.327,15,227.5,15
                     c55.894,0,106.807,21.703,144.783,57.11L72.11,372.283C36.703,334.307,15,283.395,15,227.5z M227.5,440
                     c-55.894,0-106.807-21.703-144.783-57.11L382.89,82.717C418.297,120.693,440,171.606,440,227.5C440,344.673,344.673,440,227.5,440z
                     "></path>
        </g>
    </symbol>
    <symbol id="icon-expand" viewBox="0 0 25 24">
        <path d="M6.836 2.266a.632.632 0 0 0 0-1.264H1.635a.632.632 0 0 0-.632.632v5.201a.632.632 0 0 0 1.264 0v-4.57h4.57z"></path>
        <path d="M1.188 2.081L13.077 13.97a.63.63 0 1 0 .893-.893L2.081 1.188a.63.63 0 1 0-.893.893z"></path>
        <path d="M10.106 2.8h11.368a3.158 3.158 0 0 1 3.158 3.158v14.253a3.158 3.158 0 0 1-3.158 3.158H7.173a3.158 3.158 0 0 1-3.158-3.158v-7.98h1.263v7.98c0 1.046.848 1.895 1.895 1.895h14.301a1.895 1.895 0 0 0 1.895-1.895V5.958a1.895 1.895 0 0 0-1.895-1.895H10.106V2.8z"></path>
    </symbol>
    <symbol viewBox="0 0 448 512" id="icon-collapse">
        <path d="M57.7 38.1l209.4 209.4c4.7 4.7 4.7 12.3 0 17L57.7 473.9c-4.7 4.7-12.3 4.7-17 0l-19.8-19.8c-4.7-4.7-4.7-12.3 0-17L201.6 256 20.9 74.9c-4.7-4.7-4.7-12.3 0-17l19.8-19.8c4.7-4.7 12.3-4.7 17 0zm143 0l-19.8 19.8c-4.7 4.7-4.7 12.3 0 17L361.6 256 180.9 437.1c-4.7 4.7-4.7 12.3 0 17l19.8 19.8c4.7 4.7 12.3 4.7 17 0l209.4-209.4c4.7-4.7 4.7-12.3 0-17L217.7 38.1c-4.7-4.7-12.3-4.7-17 0z">
        </path>
    </symbol>
    <symbol id="icon-cross-line-top" viewBox="0 0 31.479 31.479">
        <path d="M26.477,10.274c0.444,0.444,0.444,1.143,0,1.587c-0.429,0.429-1.143,0.429-1.571,0l-8.047-8.047  v26.555c0,0.619-0.492,1.111-1.111,1.111c-0.619,0-1.127-0.492-1.127-1.111V3.813l-8.031,8.047c-0.444,0.429-1.159,0.429-1.587,0  c-0.444-0.444-0.444-1.143,0-1.587l9.952-9.952c0.429-0.429,1.143-0.429,1.571,0L26.477,10.274z"/>
    </symbol>
    <symbol viewBox="0 0 368.167 368.167" id="icon-sidebar">
        <path d="M248.084,96.684h12c4.4,0,8-3.6,8-8c0-4.4-3.6-8-8-8h-12c-4.4,0-8,3.6-8,8C240.084,93.084,243.684,96.684,248.084,96.684     z"/>
        <path d="M366.484,25.484c-2.8-5.6-8.4-8.8-14.4-8.8h-336c-6,0-11.6,3.6-14.4,8.8c-2.8,5.6-2,12,1.6,16.8l141.2,177.6v115.6     c0,6,3.2,11.2,8.4,14c2.4,1.2,4.8,2,7.6,2c3.2,0,6.4-0.8,9.2-2.8l44.4-30.8c6.4-4.8,10-12,10-19.6v-78.8l140.8-177.2     C368.484,37.484,369.284,31.084,366.484,25.484z M209.684,211.884c-0.8,1.2-1.6,2.8-1.6,4.8v81.2c0,2.8-1.2,5.2-3.2,6.8     l-44.4,30.8v-118.8c0-2.8-1.2-5.2-3.2-6.4l-90.4-113.6h145.2c4.4,0,8-3.6,8-8c0-4.4-3.6-8-8-8h-156c-0.4,0-1.2,0-1.6,0l-38.4-48     h336L209.684,211.884z"/>
    </symbol>
    <symbol viewBox="0 0 18 18" id="icon-grid-view">
        <path d="M1 .030067h2c.55228475 0 1 .44771525 1 1v2c0 .55228475-.44771525 1-1 1H1c-.55228475 0-1-.44771525-1-1v-2c0-.55228475.44771525-1 1-1zm0 7h2c.55228475 0 1 .44771525 1 1v2c0 .5522847-.44771525 1-1 1H1c-.55228475 0-1-.4477153-1-1v-2c0-.55228475.44771525-1 1-1zm0 7h2c.55228475 0 1 .4477153 1 1v2c0 .5522847-.44771525 1-1 1H1c-.55228475 0-1-.4477153-1-1v-2c0-.5522847.44771525-1 1-1zm7-14h2c.5522847 0 1 .44771525 1 1v2c0 .55228475-.4477153 1-1 1H8c-.55228475 0-1-.44771525-1-1v-2c0-.55228475.44771525-1 1-1zm0 7h2c.5522847 0 1 .44771525 1 1v2c0 .5522847-.4477153 1-1 1H8c-.55228475 0-1-.4477153-1-1v-2c0-.55228475.44771525-1 1-1zm0 7h2c.5522847 0 1 .4477153 1 1v2c0 .5522847-.4477153 1-1 1H8c-.55228475 0-1-.4477153-1-1v-2c0-.5522847.44771525-1 1-1zm7-14h2c.5522847 0 1 .44771525 1 1v2c0 .55228475-.4477153 1-1 1h-2c-.5522847 0-1-.44771525-1-1v-2c0-.55228475.4477153-1 1-1zm0 7h2c.5522847 0 1 .44771525 1 1v2c0 .5522847-.4477153 1-1 1h-2c-.5522847 0-1-.4477153-1-1v-2c0-.55228475.4477153-1 1-1zm0 7h2c.5522847 0 1 .4477153 1 1v2c0 .5522847-.4477153 1-1 1h-2c-.5522847 0-1-.4477153-1-1v-2c0-.5522847.4477153-1 1-1z"></path>
    </symbol>
    <symbol viewBox="0 0 18 18" id="icon-list-view">
        <path d="M8 1.030067h9c.5522847 0 1 .44771525 1 1s-.4477153 1-1 1H8c-.55228475 0-1-.44771525-1-1s.44771525-1 1-1zm0 7h9c.5522847 0 1 .44771525 1 1s-.4477153 1-1 1H8c-.55228475 0-1-.44771525-1-1s.44771525-1 1-1zm0 7h9c.5522847 0 1 .4477153 1 1s-.4477153 1-1 1H8c-.55228475 0-1-.4477153-1-1s.44771525-1 1-1zm-7-15h2c.55228475 0 1 .44771525 1 1v2c0 .55228475-.44771525 1-1 1H1c-.55228475 0-1-.44771525-1-1v-2c0-.55228475.44771525-1 1-1zm0 7h2c.55228475 0 1 .44771525 1 1v2c0 .5522847-.44771525 1-1 1H1c-.55228475 0-1-.4477153-1-1v-2c0-.55228475.44771525-1 1-1zm0 7h2c.55228475 0 1 .4477153 1 1v2c0 .5522847-.44771525 1-1 1H1c-.55228475 0-1-.4477153-1-1v-2c0-.5522847.44771525-1 1-1z"></path>
    </symbol>
    <symbol viewBox="0 0 24 24" id="icon-info">
        <path d="M12 2C6.48 2 2 6.48 2 12s4.48 10 10 10 10-4.48 10-10S17.52 2 12 2zm1 15h-2v-2h2v2zm0-4h-2V7h2v6z"></path>
    </symbol>
    <symbol viewBox="0 90 612 612" id="icon-more">
        <path d="M534.172,321.071h-16.147c-1.308,0.355-2.494,0.949-3.802,1.188c-33.961,5.226-60.799,33.486-63.055,66.617
        c-2.611,37.049,18.525,68.397,52.961,78.609c4.512,1.308,9.262,2.256,13.893,3.443h16.15c1.068-0.355,2.021-0.949,3.205-1.068
        c31.35-5.104,55.219-27.666,61.986-58.541c0.477-2.375,1.188-4.75,1.781-7.125v-16.149c-0.355-1.069-0.949-2.137-1.068-3.206
        c-4.986-30.874-26.955-54.386-57.475-61.511C539.633,322.615,536.902,321.783,534.172,321.071L534.172,321.071z M77.709,470.93
        H93.86c1.306-0.356,2.493-0.95,3.8-1.069c34.199-5.344,60.917-33.724,63.055-67.209c2.375-36.932-19-68.161-53.556-78.256
        c-4.394-1.306-8.906-2.256-13.3-3.324H77.71c-1.069,0.355-2.019,0.949-3.087,1.188c-30.875,5.7-51.062,23.631-60.681,53.555
        c-1.306,3.918-2.019,8.075-3.087,12.112v16.15c0.355,1.068,0.949,2.137,1.068,3.206c5.105,30.992,26.955,54.386,57.474,61.511
        C72.247,469.505,74.979,470.218,77.709,470.93L77.709,470.93z M297.867,470.93h16.147c1.308-0.356,2.494-0.95,3.802-1.188
        c34.08-5.344,61.512-34.792,62.938-68.041c1.662-37.406-20.9-69.111-55.693-78.018c-3.682-0.95-7.362-1.78-11.043-2.612h-16.149
        c-1.307,0.355-2.494,0.949-3.8,1.188c-34.081,5.225-61.512,34.793-63.055,68.042c-1.781,37.405,20.899,69.109,55.692,78.017
        C290.505,469.267,294.187,470.098,297.867,470.93z" />
    </symbol>
    <symbol viewBox="0 0 512 512" id="icon-messenger">
        <path d="M256.55 8C116.52 8 8 110.34 8 248.57c0 72.3 29.71 134.78 78.07 177.94 8.35 7.51 6.63 11.86 8.05 58.23A19.92 19.92 0 0 0 122 502.31c52.91-23.3 53.59-25.14 62.56-22.7C337.85 521.8 504 423.7 504 248.57 504 110.34 396.59 8 256.55 8zm149.24 185.13l-73 115.57a37.37 37.37 0 0 1-53.91 9.93l-58.08-43.47a15 15 0 0 0-18 0l-78.37 59.44c-10.46 7.93-24.16-4.6-17.11-15.67l73-115.57a37.36 37.36 0 0 1 53.91-9.93l58.06 43.46a15 15 0 0 0 18 0l78.41-59.38c10.44-7.98 24.14 4.54 17.09 15.62z"></path>
    </symbol>
    <symbol viewBox="0 0 512 512" id="icon-email">
        <path d="M464 64H48C21.49 64 0 85.49 0 112v288c0 26.51 21.49 48 48 48h416c26.51 0 48-21.49 48-48V112c0-26.51-21.49-48-48-48zm0 48v40.805c-22.422 18.259-58.168 46.651-134.587 106.49-16.841 13.247-50.201 45.072-73.413 44.701-23.208.375-56.579-31.459-73.413-44.701C106.18 199.465 70.425 171.067 48 152.805V112h416zM48 400V214.398c22.914 18.251 55.409 43.862 104.938 82.646 21.857 17.205 60.134 55.186 103.062 54.955 42.717.231 80.509-37.199 103.053-54.947 49.528-38.783 82.032-64.401 104.947-82.653V400H48z"></path>
    </symbol>
    <symbol viewBox="0 0 60.734 60.733" id="icon-facebook-share">
        <path d="M57.378,0.001H3.352C1.502,0.001,0,1.5,0,3.353v54.026c0,1.853,1.502,3.354,3.352,3.354h29.086V37.214h-7.914v-9.167h7.914         v-6.76c0-7.843,4.789-12.116,11.787-12.116c3.355,0,6.232,0.251,7.071,0.36v8.198l-4.854,0.002c-3.805,0-4.539,1.809-4.539,4.462        v5.851h9.078l-1.187,9.166h-7.892v23.52h15.475c1.852,0,3.355-1.503,3.355-3.351V3.351C60.731,1.5,59.23,0.001,57.378,0.001z"></path>
    </symbol>
    <symbol viewBox="0 0 512 512" id="icon-messenger-share">
        <path d="M256.55 8C116.52 8 8 110.34 8 248.57c0 72.3 29.71 134.78 78.07 177.94 8.35 7.51 6.63 11.86 8.05 58.23A19.92 19.92 0 0 0 122 502.31c52.91-23.3 53.59-25.14 62.56-22.7C337.85 521.8 504 423.7 504 248.57 504 110.34 396.59 8 256.55 8zm149.24 185.13l-73 115.57a37.37 37.37 0 0 1-53.91 9.93l-58.08-43.47a15 15 0 0 0-18 0l-78.37 59.44c-10.46 7.93-24.16-4.6-17.11-15.67l73-115.57a37.36 37.36 0 0 1 53.91-9.93l58.06 43.46a15 15 0 0 0 18 0l78.41-59.38c10.44-7.98 24.14 4.54 17.09 15.62z"></path>
    </symbol>
    <symbol viewBox="0 0 512 512" id="icon-linkedin-share">
        <path d="m475.074219 0h-438.148438c-20.394531 0-36.925781 16.53125-36.925781 36.925781v438.148438c0 20.394531 16.53125 36.925781 36.925781 36.925781h438.148438c20.394531 0 36.925781-16.53125 36.925781-36.925781v-438.148438c0-20.394531-16.53125-36.925781-36.925781-36.925781zm-293.464844 387h-62.347656v-187.574219h62.347656zm-31.171875-213.1875h-.40625c-20.921875 0-34.453125-14.402344-34.453125-32.402344 0-18.40625 13.945313-32.410156 35.273437-32.410156 21.328126 0 34.453126 14.003906 34.859376 32.410156 0 18-13.53125 32.402344-35.273438 32.402344zm255.984375 213.1875h-62.339844v-100.347656c0-25.21875-9.027343-42.417969-31.585937-42.417969-17.222656 0-27.480469 11.601563-31.988282 22.800781-1.648437 4.007813-2.050781 9.609375-2.050781 15.214844v104.75h-62.34375s.816407-169.976562 0-187.574219h62.34375v26.558594c8.285157-12.78125 23.109375-30.960937 56.1875-30.960937 41.019531 0 71.777344 26.808593 71.777344 84.421874zm0 0"></path>
    </symbol>
    <symbol viewBox="0 0 512 512" id="icon-mail-share">
        <path d="M494.586 164.516c-4.697-3.883-111.723-89.95-135.251-108.657C337.231 38.191 299.437 0 256 0c-43.205 0-80.636 37.717-103.335 55.859-24.463 19.45-131.07 105.195-135.15 108.549A48.004 48.004 0 0 0 0 201.485V464c0 26.51 21.49 48 48 48h416c26.51 0 48-21.49 48-48V201.509a48 48 0 0 0-17.414-36.993zM464 458a6 6 0 0 1-6 6H54a6 6 0 0 1-6-6V204.347c0-1.813.816-3.526 2.226-4.665 15.87-12.814 108.793-87.554 132.364-106.293C200.755 78.88 232.398 48 256 48c23.693 0 55.857 31.369 73.41 45.389 23.573 18.741 116.503 93.493 132.366 106.316a5.99 5.99 0 0 1 2.224 4.663V458zm-31.991-187.704c4.249 5.159 3.465 12.795-1.745 16.981-28.975 23.283-59.274 47.597-70.929 56.863C336.636 362.283 299.205 400 256 400c-43.452 0-81.287-38.237-103.335-55.86-11.279-8.967-41.744-33.413-70.927-56.865-5.21-4.187-5.993-11.822-1.745-16.981l15.258-18.528c4.178-5.073 11.657-5.843 16.779-1.726 28.618 23.001 58.566 47.035 70.56 56.571C200.143 320.631 232.307 352 256 352c23.602 0 55.246-30.88 73.41-45.389 11.994-9.535 41.944-33.57 70.563-56.568 5.122-4.116 12.601-3.346 16.778 1.727l15.258 18.526z"></path>
    </symbol>
    <symbol viewBox="0 0 200 200" id="icon-video-product">
        <circle cx="100" cy="100" r="90" fill="none" stroke-width="8"></circle>
        <polygon points="70, 50 70, 145 155, 100"></polygon>
    </symbol>
    <symbol viewBox="0 0 448 512" id="icon-fire">
        <path d="M323.56 51.2c-20.8 19.3-39.58 39.59-56.22 59.97C240.08 73.62 206.28 35.53 168 0 69.74 91.17 0 209.96 0 281.6 0 408.85 100.29 512 224 512s224-103.15 224-230.4c0-53.27-51.98-163.14-124.44-230.4zm-19.47 340.65C282.43 407.01 255.72 416 226.86 416 154.71 416 96 368.26 96 290.75c0-38.61 24.31-72.63 72.79-130.75 6.93 7.98 98.83 125.34 98.83 125.34l58.63-66.88c4.14 6.85 7.91 13.55 11.27 19.97 27.35 52.19 15.81 118.97-33.43 153.42z"></path>
    </symbol>
    <symbol viewBox="0 0 448 512" id="icon-bell">
        <path d="M439.39 362.29c-19.32-20.76-55.47-51.99-55.47-154.29 0-77.7-54.48-139.9-127.94-155.16V32c0-17.67-14.32-32-31.98-32s-31.98 14.33-31.98 32v20.84C118.56 68.1 64.08 130.3 64.08 208c0 102.3-36.15 133.53-55.47 154.29-6 6.45-8.66 14.16-8.61 21.71.11 16.4 12.98 32 32.1 32h383.8c19.12 0 32-15.6 32.1-32 .05-7.55-2.61-15.27-8.61-21.71zM67.53 368c21.22-27.97 44.42-74.33 44.53-159.42 0-.2-.06-.38-.06-.58 0-61.86 50.14-112 112-112s112 50.14 112 112c0 .2-.06.38-.06.58.11 85.1 23.31 131.46 44.53 159.42H67.53zM224 512c35.32 0 63.97-28.65 63.97-64H160.03c0 35.35 28.65 64 63.97 64z"></path>
    </symbol>
    <symbol viewBox="0 0 576 512" id="icon-eye">
        <path d="M288 144a110.94 110.94 0 0 0-31.24 5 55.4 55.4 0 0 1 7.24 27 56 56 0 0 1-56 56 55.4 55.4 0 0 1-27-7.24A111.71 111.71 0 1 0 288 144zm284.52 97.4C518.29 135.59 410.93 64 288 64S57.68 135.64 3.48 241.41a32.35 32.35 0 0 0 0 29.19C57.71 376.41 165.07 448 288 448s230.32-71.64 284.52-177.41a32.35 32.35 0 0 0 0-29.19zM288 400c-98.65 0-189.09-55-237.93-144C98.91 167 189.34 112 288 112s189.09 55 237.93 144C477.1 345 386.66 400 288 400z"></path>
    </symbol>
    <symbol viewBox="0 0 1000 1000" id="icon-arrow-left">
        <path d="M10,508l233.8,233.8l27-27L81.9,526H990v-36H81.9l188.8-188.8l-27-27L10,508z"></path>
    </symbol>
    <symbol viewBox="0 0 1000 1000" id="icon-arrow-right">
        <path d="M756.2,741.8L990,508L756.2,274.2l-27,27L918.1,490H10v36h908.1L729.3,714.8L756.2,741.8z"></path>
    </symbol>
    <symbol viewBox="0 0 640 512" id="icon-truck">
        <path d="M280 192c4.4 0 8-3.6 8-8v-16c0-4.4-3.6-8-8-8H40c-4.4 0-8 3.6-8 8v16c0 4.4 3.6 8 8 8h240zm352 192h-24V275.9c0-16.8-6.8-33.3-18.8-45.2l-83.9-83.9c-11.8-12-28.3-18.8-45.2-18.8H416V78.6c0-25.7-22.2-46.6-49.4-46.6H113.4C86.2 32 64 52.9 64 78.6V96H8c-4.4 0-8 3.6-8 8v16c0 4.4 3.6 8 8 8h240c4.4 0 8-3.6 8-8v-16c0-4.4-3.6-8-8-8H96V78.6c0-8.1 7.8-14.6 17.4-14.6h253.2c9.6 0 17.4 6.5 17.4 14.6V384H207.6C193 364.7 170 352 144 352c-18.1 0-34.6 6.2-48 16.4V288H64v144c0 44.2 35.8 80 80 80s80-35.8 80-80c0-5.5-.6-10.8-1.6-16h195.2c-1.1 5.2-1.6 10.5-1.6 16 0 44.2 35.8 80 80 80s80-35.8 80-80c0-5.5-.6-10.8-1.6-16H632c4.4 0 8-3.6 8-8v-16c0-4.4-3.6-8-8-8zm-488 96c-26.5 0-48-21.5-48-48s21.5-48 48-48 48 21.5 48 48-21.5 48-48 48zm272-320h44.1c8.4 0 16.7 3.4 22.6 9.4l83.9 83.9c.8.8 1.1 1.9 1.8 2.8H416V160zm80 320c-26.5 0-48-21.5-48-48s21.5-48 48-48 48 21.5 48 48-21.5 48-48 48zm80-96h-16.4C545 364.7 522 352 496 352s-49 12.7-63.6 32H416v-96h160v96zM256 248v-16c0-4.4-3.6-8-8-8H8c-4.4 0-8 3.6-8 8v16c0 4.4 3.6 8 8 8h240c4.4 0 8-3.6 8-8z"></path>
    </symbol>
    <symbol viewBox="0 0 512 512" id="icon-revert">
        <path d="M20 8h10c6.627 0 12 5.373 12 12v110.625C85.196 57.047 165.239 7.715 256.793 8.001 393.18 8.428 504.213 120.009 504 256.396 503.786 393.181 392.834 504 256 504c-63.926 0-122.202-24.187-166.178-63.908-5.113-4.618-5.354-12.561-.482-17.433l7.069-7.069c4.503-4.503 11.749-4.714 16.482-.454C150.782 449.238 200.935 470 256 470c117.744 0 214-95.331 214-214 0-117.744-95.331-214-214-214-82.862 0-154.737 47.077-190.289 116H180c6.627 0 12 5.373 12 12v10c0 6.627-5.373 12-12 12H20c-6.627 0-12-5.373-12-12V20c0-6.627 5.373-12 12-12z"></path>
    </symbol>
    <symbol viewBox="0 0 576 512" id="icon-star-empty">
        <path d="M528.1 171.5L382 150.2 316.7 17.8c-11.7-23.6-45.6-23.9-57.4 0L194 150.2 47.9 171.5c-26.2 3.8-36.7 36.1-17.7 54.6l105.7 103-25 145.5c-4.5 26.3 23.2 46 46.4 33.7L288 439.6l130.7 68.7c23.2 12.2 50.9-7.4 46.4-33.7l-25-145.5 105.7-103c19-18.5 8.5-50.8-17.7-54.6zM405.8 317.9l27.8 162L288 403.5 142.5 480l27.8-162L52.5 203.1l162.7-23.6L288 32l72.8 147.5 162.7 23.6-117.7 114.8z"></path>
    </symbol>
    <symbol viewBox="0 0 512 512" id="icon-shield-check">
        <path d="M466.5 83.7l-192-80a48.15 48.15 0 0 0-36.9 0l-192 80C27.7 91.1 16 108.6 16 128c0 198.5 114.5 335.7 221.5 380.3 11.8 4.9 25.1 4.9 36.9 0C360.1 472.6 496 349.3 496 128c0-19.4-11.7-36.9-29.5-44.3zM262.2 478.8c-4 1.6-8.4 1.6-12.3 0C152 440 48 304 48 128c0-6.5 3.9-12.3 9.8-14.8l192-80c3.9-1.6 8.4-1.6 12.3 0l192 80c6 2.5 9.9 8.3 9.8 14.8.1 176-103.9 312-201.7 350.8zm136.2-325c-4.7-4.7-12.3-4.7-17-.1L218 315.8l-69-69.5c-4.7-4.7-12.3-4.7-17-.1l-8.5 8.5c-4.7 4.7-4.7 12.3-.1 17l85.9 86.6c4.7 4.7 12.3 4.7 17 .1l180.5-179c4.7-4.7 4.7-12.3.1-17z"></path>
    </symbol>
    <symbol viewBox="0 0 162.656 162.656" id="icon-external-link">
        <path d="M151.764,10.894c-14.522-14.522-38.152-14.525-52.676-0.008l0.003,0.003L76.112,33.872l10.607,10.605l22.983-22.988   l-0.002-0.002c8.678-8.663,22.785-8.658,31.457,0.014c8.673,8.672,8.672,22.786,0,31.461l-34.486,34.484   c-4.201,4.202-9.787,6.516-15.729,6.516c-5.942,0-11.529-2.314-15.73-6.516L64.605,98.052c7.035,7.035,16.389,10.91,26.338,10.91   c9.949,0,19.303-3.875,26.335-10.91l34.487-34.484C166.284,49.043,166.284,25.413,151.764,10.894z"/>
        <path d="M52.96,141.162L52.96,141.162c-8.675,8.67-22.788,8.668-31.461-0.005c-8.673-8.675-8.673-22.791-0.001-31.465L55.98,75.21   c8.675-8.674,22.789-8.674,31.462,0L98.05,64.604c-14.524-14.523-38.154-14.524-52.676,0L10.89,99.086   c-14.519,14.523-14.519,38.154,0.001,52.678c7.263,7.262,16.801,10.893,26.341,10.892c9.536,0,19.074-3.629,26.333-10.887   l0.002-0.001l22.984-22.99l-10.608-10.606L52.96,141.162z"/>
    </symbol>
    <symbol viewBox="0 0 426.66667 426.66667" id="icon-external-add">
        <path d="m405.332031 192h-170.664062v-170.667969c0-11.773437-9.558594-21.332031-21.335938-21.332031-11.773437 0-21.332031 9.558594-21.332031 21.332031v170.667969h-170.667969c-11.773437 0-21.332031 9.558594-21.332031 21.332031 0 11.777344 9.558594 21.335938 21.332031 21.335938h170.667969v170.664062c0 11.777344 9.558594 21.335938 21.332031 21.335938 11.777344 0 21.335938-9.558594 21.335938-21.335938v-170.664062h170.664062c11.777344 0 21.335938-9.558594 21.335938-21.335938 0-11.773437-9.558594-21.332031-21.335938-21.332031zm0 0"/>
    </symbol>
    <symbol viewBox="0 0 409.6 409.6" id="icon-external-remove">
        <g>
            <path d="M392.533,187.733H17.067C7.641,187.733,0,195.374,0,204.8s7.641,17.067,17.067,17.067h375.467    c9.426,0,17.067-7.641,17.067-17.067S401.959,187.733,392.533,187.733z"/>
        </g>
    </symbol>
</svg>
